# Tiled2Unity generated file. Do not modify by hand.
# Wavefront file for 'Room2_mesh_0003.obj'

# Vertices (Count = 164)
v -11 -8 0
v -12 -8 0
v -12 -7 0
v -11 -7 0
v -10 -8 0
v -11 -8 0
v -11 -7 0
v -10 -7 0
v -9 -8 0
v -10 -8 0
v -10 -7 0
v -9 -7 0
v -8 -8 0
v -9 -8 0
v -9 -7 0
v -8 -7 0
v -7 -8 0
v -8 -8 0
v -8 -7 0
v -7 -7 0
v -11 -9 0
v -12 -9 0
v -12 -8 0
v -11 -8 0
v -10 -9 0
v -11 -9 0
v -11 -8 0
v -10 -8 0
v -9 -9 0
v -10 -9 0
v -10 -8 0
v -9 -8 0
v -8 -9 0
v -9 -9 0
v -9 -8 0
v -8 -8 0
v -7 -9 0
v -8 -9 0
v -8 -8 0
v -7 -8 0
v -11 -10 0
v -12 -10 0
v -12 -9 0
v -11 -9 0
v -10 -10 0
v -11 -10 0
v -11 -9 0
v -10 -9 0
v -9 -10 0
v -10 -10 0
v -10 -9 0
v -9 -9 0
v -8 -10 0
v -9 -10 0
v -9 -9 0
v -8 -9 0
v -7 -10 0
v -8 -10 0
v -8 -9 0
v -7 -9 0
v -7 -11 0
v -8 -11 0
v -8 -10 0
v -7 -10 0
v -22 -15 0
v -23 -15 0
v -23 -14 0
v -22 -14 0
v -21 -15 0
v -22 -15 0
v -22 -14 0
v -21 -14 0
v -20 -15 0
v -21 -15 0
v -21 -14 0
v -20 -14 0
v -19 -15 0
v -20 -15 0
v -20 -14 0
v -19 -14 0
v -18 -15 0
v -19 -15 0
v -19 -14 0
v -18 -14 0
v -22 -16 0
v -23 -16 0
v -23 -15 0
v -22 -15 0
v -21 -16 0
v -22 -16 0
v -22 -15 0
v -21 -15 0
v -20 -16 0
v -21 -16 0
v -21 -15 0
v -20 -15 0
v -19 -16 0
v -20 -16 0
v -20 -15 0
v -19 -15 0
v -18 -16 0
v -19 -16 0
v -19 -15 0
v -18 -15 0
v -22 -17 0
v -23 -17 0
v -23 -16 0
v -22 -16 0
v -21 -17 0
v -22 -17 0
v -22 -16 0
v -21 -16 0
v -20 -17 0
v -21 -17 0
v -21 -16 0
v -20 -16 0
v -19 -17 0
v -20 -17 0
v -20 -16 0
v -19 -16 0
v -18 -17 0
v -19 -17 0
v -19 -16 0
v -18 -16 0
v -22 -18 0
v -23 -18 0
v -23 -17 0
v -22 -17 0
v -21 -18 0
v -22 -18 0
v -22 -17 0
v -21 -17 0
v -20 -18 0
v -21 -18 0
v -21 -17 0
v -20 -17 0
v -19 -18 0
v -20 -18 0
v -20 -17 0
v -19 -17 0
v -18 -18 0
v -19 -18 0
v -19 -17 0
v -18 -17 0
v -22 -19 0
v -23 -19 0
v -23 -18 0
v -22 -18 0
v -21 -19 0
v -22 -19 0
v -22 -18 0
v -21 -18 0
v -20 -19 0
v -21 -19 0
v -21 -18 0
v -20 -18 0
v -19 -19 0
v -20 -19 0
v -20 -18 0
v -19 -18 0
v -18 -19 0
v -19 -19 0
v -19 -18 0
v -18 -18 0

# Texture cooridinates (Count = 62)
vt 0.55 0.3611111
vt 0.575 0.3611111
vt 0.575 0.3888889
vt 0.55 0.3888889
vt 0.525 0.3611111
vt 0.525 0.3888889
vt 0.5 0.3611111
vt 0.5 0.3888889
vt 0.475 0.3611111
vt 0.475 0.3888889
vt 0.45 0.3611111
vt 0.45 0.3888889
vt 0.55 0.3333333
vt 0.575 0.3333333
vt 0.525 0.3333333
vt 0.5 0.3333333
vt 0.475 0.3333333
vt 0.45 0.3333333
vt 0.55 0.3055556
vt 0.575 0.3055556
vt 0.525 0.3055556
vt 0.5 0.3055556
vt 0.475 0.3055556
vt 0.45 0.3055556
vt 0.45 0.2777778
vt 0.475 0.2777778
vt 0.375 0.9722222
vt 0.4 0.9722222
vt 0.4 1
vt 0.375 1
vt 0.35 0.9722222
vt 0.35 1
vt 0.325 0.9722222
vt 0.325 1
vt 0.3 0.9722222
vt 0.3 1
vt 0.275 0.9722222
vt 0.275 1
vt 0.375 0.9444444
vt 0.4 0.9444444
vt 0.35 0.9444444
vt 0.325 0.9444444
vt 0.3 0.9444444
vt 0.275 0.9444444
vt 0.375 0.9166667
vt 0.4 0.9166667
vt 0.35 0.9166667
vt 0.325 0.9166667
vt 0.3 0.9166667
vt 0.275 0.9166667
vt 0.375 0.8888889
vt 0.4 0.8888889
vt 0.35 0.8888889
vt 0.325 0.8888889
vt 0.3 0.8888889
vt 0.275 0.8888889
vt 0.375 0.8611111
vt 0.4 0.8611111
vt 0.35 0.8611111
vt 0.325 0.8611111
vt 0.3 0.8611111
vt 0.275 0.8611111

# Normal
vn 0 0 -1

# Mesh description
g Room2_mesh_0003

# Faces
f 1/1/1 2/2/1 3/3/1 4/4/1
f 5/5/1 6/1/1 7/4/1 8/6/1
f 9/7/1 10/5/1 11/6/1 12/8/1
f 13/9/1 14/7/1 15/8/1 16/10/1
f 17/11/1 18/9/1 19/10/1 20/12/1
f 21/13/1 22/14/1 23/2/1 24/1/1
f 25/15/1 26/13/1 27/1/1 28/5/1
f 29/16/1 30/15/1 31/5/1 32/7/1
f 33/17/1 34/16/1 35/7/1 36/9/1
f 37/18/1 38/17/1 39/9/1 40/11/1
f 41/19/1 42/20/1 43/14/1 44/13/1
f 45/21/1 46/19/1 47/13/1 48/15/1
f 49/22/1 50/21/1 51/15/1 52/16/1
f 53/23/1 54/22/1 55/16/1 56/17/1
f 57/24/1 58/23/1 59/17/1 60/18/1
f 61/25/1 62/26/1 63/23/1 64/24/1
f 65/27/1 66/28/1 67/29/1 68/30/1
f 69/31/1 70/27/1 71/30/1 72/32/1
f 73/33/1 74/31/1 75/32/1 76/34/1
f 77/35/1 78/33/1 79/34/1 80/36/1
f 81/37/1 82/35/1 83/36/1 84/38/1
f 85/39/1 86/40/1 87/28/1 88/27/1
f 89/41/1 90/39/1 91/27/1 92/31/1
f 93/42/1 94/41/1 95/31/1 96/33/1
f 97/43/1 98/42/1 99/33/1 100/35/1
f 101/44/1 102/43/1 103/35/1 104/37/1
f 105/45/1 106/46/1 107/40/1 108/39/1
f 109/47/1 110/45/1 111/39/1 112/41/1
f 113/48/1 114/47/1 115/41/1 116/42/1
f 117/49/1 118/48/1 119/42/1 120/43/1
f 121/50/1 122/49/1 123/43/1 124/44/1
f 125/51/1 126/52/1 127/46/1 128/45/1
f 129/53/1 130/51/1 131/45/1 132/47/1
f 133/54/1 134/53/1 135/47/1 136/48/1
f 137/55/1 138/54/1 139/48/1 140/49/1
f 141/56/1 142/55/1 143/49/1 144/50/1
f 145/57/1 146/58/1 147/52/1 148/51/1
f 149/59/1 150/57/1 151/51/1 152/53/1
f 153/60/1 154/59/1 155/53/1 156/54/1
f 157/61/1 158/60/1 159/54/1 160/55/1
f 161/62/1 162/61/1 163/55/1 164/56/1

