# Tiled2Unity generated file. Do not modify by hand.
# Wavefront file for 'Room2_mesh_0002.obj'

# Vertices (Count = 728)
v -24 -1 0
v -25 -1 0
v -25 0 0
v -24 0 0
v -23 -1 0
v -24 -1 0
v -24 0 0
v -23 0 0
v -22 -1 0
v -23 -1 0
v -23 0 0
v -22 0 0
v -21 -1 0
v -22 -1 0
v -22 0 0
v -21 0 0
v -20 -1 0
v -21 -1 0
v -21 0 0
v -20 0 0
v -19 -1 0
v -20 -1 0
v -20 0 0
v -19 0 0
v -18 -1 0
v -19 -1 0
v -19 0 0
v -18 0 0
v -17 -1 0
v -18 -1 0
v -18 0 0
v -17 0 0
v -16 -1 0
v -17 -1 0
v -17 0 0
v -16 0 0
v -15 -1 0
v -16 -1 0
v -16 0 0
v -15 0 0
v -14 -1 0
v -15 -1 0
v -15 0 0
v -14 0 0
v -13 -1 0
v -14 -1 0
v -14 0 0
v -13 0 0
v -12 -1 0
v -13 -1 0
v -13 0 0
v -12 0 0
v -11 -1 0
v -12 -1 0
v -12 0 0
v -11 0 0
v -10 -1 0
v -11 -1 0
v -11 0 0
v -10 0 0
v -9 -1 0
v -10 -1 0
v -10 0 0
v -9 0 0
v -8 -1 0
v -9 -1 0
v -9 0 0
v -8 0 0
v -7 -1 0
v -8 -1 0
v -8 0 0
v -7 0 0
v -6 -1 0
v -7 -1 0
v -7 0 0
v -6 0 0
v -5 -1 0
v -6 -1 0
v -6 0 0
v -5 0 0
v -4 -1 0
v -5 -1 0
v -5 0 0
v -4 0 0
v -3 -1 0
v -4 -1 0
v -4 0 0
v -3 0 0
v -2 -1 0
v -3 -1 0
v -3 0 0
v -2 0 0
v -1 -1 0
v -2 -1 0
v -2 0 0
v -1 0 0
v 0 -1 0
v -1 -1 0
v -1 0 0
v 0 0 0
v -24 -2 0
v -25 -2 0
v -25 -1 0
v -24 -1 0
v -23 -2 0
v -24 -2 0
v -24 -1 0
v -23 -1 0
v -22 -2 0
v -23 -2 0
v -23 -1 0
v -22 -1 0
v -11 -2 0
v -12 -2 0
v -12 -1 0
v -11 -1 0
v -10 -2 0
v -11 -2 0
v -11 -1 0
v -10 -1 0
v 0 -2 0
v -1 -2 0
v -1 -1 0
v 0 -1 0
v -24 -3 0
v -25 -3 0
v -25 -2 0
v -24 -2 0
v -23 -3 0
v -24 -3 0
v -24 -2 0
v -23 -2 0
v -22 -3 0
v -23 -3 0
v -23 -2 0
v -22 -2 0
v -11 -3 0
v -12 -3 0
v -12 -2 0
v -11 -2 0
v -10 -3 0
v -11 -3 0
v -11 -2 0
v -10 -2 0
v 0 -3 0
v -1 -3 0
v -1 -2 0
v 0 -2 0
v -24 -4 0
v -25 -4 0
v -25 -3 0
v -24 -3 0
v 0 -4 0
v -1 -4 0
v -1 -3 0
v 0 -3 0
v -24 -5 0
v -25 -5 0
v -25 -4 0
v -24 -4 0
v -8 -5 0
v -9 -5 0
v -9 -4 0
v -8 -4 0
v -7 -5 0
v -8 -5 0
v -8 -4 0
v -7 -4 0
v 0 -5 0
v -1 -5 0
v -1 -4 0
v 0 -4 0
v -24 -6 0
v -25 -6 0
v -25 -5 0
v -24 -5 0
v -20 -6 0
v -21 -6 0
v -21 -5 0
v -20 -5 0
v -19 -6 0
v -20 -6 0
v -20 -5 0
v -19 -5 0
v -17 -6 0
v -18 -6 0
v -18 -5 0
v -17 -5 0
v -16 -6 0
v -17 -6 0
v -17 -5 0
v -16 -5 0
v -15 -6 0
v -16 -6 0
v -16 -5 0
v -15 -5 0
v -14 -6 0
v -15 -6 0
v -15 -5 0
v -14 -5 0
v -13 -6 0
v -14 -6 0
v -14 -5 0
v -13 -5 0
v -8 -6 0
v -9 -6 0
v -9 -5 0
v -8 -5 0
v -7 -6 0
v -8 -6 0
v -8 -5 0
v -7 -5 0
v 0 -6 0
v -1 -6 0
v -1 -5 0
v 0 -5 0
v -24 -7 0
v -25 -7 0
v -25 -6 0
v -24 -6 0
v -20 -7 0
v -21 -7 0
v -21 -6 0
v -20 -6 0
v -19 -7 0
v -20 -7 0
v -20 -6 0
v -19 -6 0
v -17 -7 0
v -18 -7 0
v -18 -6 0
v -17 -6 0
v -16 -7 0
v -17 -7 0
v -17 -6 0
v -16 -6 0
v -15 -7 0
v -16 -7 0
v -16 -6 0
v -15 -6 0
v -14 -7 0
v -15 -7 0
v -15 -6 0
v -14 -6 0
v -13 -7 0
v -14 -7 0
v -14 -6 0
v -13 -6 0
v 0 -7 0
v -1 -7 0
v -1 -6 0
v 0 -6 0
v -24 -8 0
v -25 -8 0
v -25 -7 0
v -24 -7 0
v -17 -8 0
v -18 -8 0
v -18 -7 0
v -17 -7 0
v -16 -8 0
v -17 -8 0
v -17 -7 0
v -16 -7 0
v -15 -8 0
v -16 -8 0
v -16 -7 0
v -15 -7 0
v -14 -8 0
v -15 -8 0
v -15 -7 0
v -14 -7 0
v -13 -8 0
v -14 -8 0
v -14 -7 0
v -13 -7 0
v -4 -8 0
v -5 -8 0
v -5 -7 0
v -4 -7 0
v -3 -8 0
v -4 -8 0
v -4 -7 0
v -3 -7 0
v 0 -8 0
v -1 -8 0
v -1 -7 0
v 0 -7 0
v -24 -9 0
v -25 -9 0
v -25 -8 0
v -24 -8 0
v -23 -9 0
v -24 -9 0
v -24 -8 0
v -23 -8 0
v -22 -9 0
v -23 -9 0
v -23 -8 0
v -22 -8 0
v -17 -9 0
v -18 -9 0
v -18 -8 0
v -17 -8 0
v -16 -9 0
v -17 -9 0
v -17 -8 0
v -16 -8 0
v -15 -9 0
v -16 -9 0
v -16 -8 0
v -15 -8 0
v -14 -9 0
v -15 -9 0
v -15 -8 0
v -14 -8 0
v -13 -9 0
v -14 -9 0
v -14 -8 0
v -13 -8 0
v -4 -9 0
v -5 -9 0
v -5 -8 0
v -4 -8 0
v -3 -9 0
v -4 -9 0
v -4 -8 0
v -3 -8 0
v 0 -9 0
v -1 -9 0
v -1 -8 0
v 0 -8 0
v -24 -10 0
v -25 -10 0
v -25 -9 0
v -24 -9 0
v -23 -10 0
v -24 -10 0
v -24 -9 0
v -23 -9 0
v -22 -10 0
v -23 -10 0
v -23 -9 0
v -22 -9 0
v -17 -10 0
v -18 -10 0
v -18 -9 0
v -17 -9 0
v -16 -10 0
v -17 -10 0
v -17 -9 0
v -16 -9 0
v -15 -10 0
v -16 -10 0
v -16 -9 0
v -15 -9 0
v -14 -10 0
v -15 -10 0
v -15 -9 0
v -14 -9 0
v -13 -10 0
v -14 -10 0
v -14 -9 0
v -13 -9 0
v 0 -10 0
v -1 -10 0
v -1 -9 0
v 0 -9 0
v -24 -11 0
v -25 -11 0
v -25 -10 0
v -24 -10 0
v -23 -11 0
v -24 -11 0
v -24 -10 0
v -23 -10 0
v -21 -11 0
v -22 -11 0
v -22 -10 0
v -21 -10 0
v -11 -11 0
v -12 -11 0
v -12 -10 0
v -11 -10 0
v -10 -11 0
v -11 -11 0
v -11 -10 0
v -10 -10 0
v -9 -11 0
v -10 -11 0
v -10 -10 0
v -9 -10 0
v -8 -11 0
v -9 -11 0
v -9 -10 0
v -8 -10 0
v 0 -11 0
v -1 -11 0
v -1 -10 0
v 0 -10 0
v -24 -12 0
v -25 -12 0
v -25 -11 0
v -24 -11 0
v -23 -12 0
v -24 -12 0
v -24 -11 0
v -23 -11 0
v -21 -12 0
v -22 -12 0
v -22 -11 0
v -21 -11 0
v -11 -12 0
v -12 -12 0
v -12 -11 0
v -11 -11 0
v -10 -12 0
v -11 -12 0
v -11 -11 0
v -10 -11 0
v -9 -12 0
v -10 -12 0
v -10 -11 0
v -9 -11 0
v -8 -12 0
v -9 -12 0
v -9 -11 0
v -8 -11 0
v -7 -12 0
v -8 -12 0
v -8 -11 0
v -7 -11 0
v 0 -12 0
v -1 -12 0
v -1 -11 0
v 0 -11 0
v -24 -13 0
v -25 -13 0
v -25 -12 0
v -24 -12 0
v -23 -13 0
v -24 -13 0
v -24 -12 0
v -23 -12 0
v -21 -13 0
v -22 -13 0
v -22 -12 0
v -21 -12 0
v -11 -13 0
v -12 -13 0
v -12 -12 0
v -11 -12 0
v -10 -13 0
v -11 -13 0
v -11 -12 0
v -10 -12 0
v -9 -13 0
v -10 -13 0
v -10 -12 0
v -9 -12 0
v -8 -13 0
v -9 -13 0
v -9 -12 0
v -8 -12 0
v -7 -13 0
v -8 -13 0
v -8 -12 0
v -7 -12 0
v 0 -13 0
v -1 -13 0
v -1 -12 0
v 0 -12 0
v -24 -14 0
v -25 -14 0
v -25 -13 0
v -24 -13 0
v -23 -14 0
v -24 -14 0
v -24 -13 0
v -23 -13 0
v -21 -14 0
v -22 -14 0
v -22 -13 0
v -21 -13 0
v 0 -14 0
v -1 -14 0
v -1 -13 0
v 0 -13 0
v -24 -15 0
v -25 -15 0
v -25 -14 0
v -24 -14 0
v -24 -16 0
v -25 -16 0
v -25 -15 0
v -24 -15 0
v -17 -16 0
v -18 -16 0
v -18 -15 0
v -17 -15 0
v -16 -16 0
v -17 -16 0
v -17 -15 0
v -16 -15 0
v -24 -17 0
v -25 -17 0
v -25 -16 0
v -24 -16 0
v -17 -17 0
v -18 -17 0
v -18 -16 0
v -17 -16 0
v -16 -17 0
v -17 -17 0
v -17 -16 0
v -16 -16 0
v 0 -17 0
v -1 -17 0
v -1 -16 0
v 0 -16 0
v -24 -18 0
v -25 -18 0
v -25 -17 0
v -24 -17 0
v -8 -18 0
v -9 -18 0
v -9 -17 0
v -8 -17 0
v -7 -18 0
v -8 -18 0
v -8 -17 0
v -7 -17 0
v 0 -18 0
v -1 -18 0
v -1 -17 0
v 0 -17 0
v -24 -19 0
v -25 -19 0
v -25 -18 0
v -24 -18 0
v -8 -19 0
v -9 -19 0
v -9 -18 0
v -8 -18 0
v -7 -19 0
v -8 -19 0
v -8 -18 0
v -7 -18 0
v 0 -19 0
v -1 -19 0
v -1 -18 0
v 0 -18 0
v -24 -20 0
v -25 -20 0
v -25 -19 0
v -24 -19 0
v -5 -20 0
v -6 -20 0
v -6 -19 0
v -5 -19 0
v -4 -20 0
v -5 -20 0
v -5 -19 0
v -4 -19 0
v 0 -20 0
v -1 -20 0
v -1 -19 0
v 0 -19 0
v -24 -21 0
v -25 -21 0
v -25 -20 0
v -24 -20 0
v -22 -21 0
v -23 -21 0
v -23 -20 0
v -22 -20 0
v -21 -21 0
v -22 -21 0
v -22 -20 0
v -21 -20 0
v -5 -21 0
v -6 -21 0
v -6 -20 0
v -5 -20 0
v -4 -21 0
v -5 -21 0
v -5 -20 0
v -4 -20 0
v 0 -21 0
v -1 -21 0
v -1 -20 0
v 0 -20 0
v -24 -22 0
v -25 -22 0
v -25 -21 0
v -24 -21 0
v -22 -22 0
v -23 -22 0
v -23 -21 0
v -22 -21 0
v -21 -22 0
v -22 -22 0
v -22 -21 0
v -21 -21 0
v 0 -22 0
v -1 -22 0
v -1 -21 0
v 0 -21 0
v -24 -23 0
v -25 -23 0
v -25 -22 0
v -24 -22 0
v -16 -23 0
v -17 -23 0
v -17 -22 0
v -16 -22 0
v -15 -23 0
v -16 -23 0
v -16 -22 0
v -15 -22 0
v 0 -23 0
v -1 -23 0
v -1 -22 0
v 0 -22 0
v -24 -24 0
v -25 -24 0
v -25 -23 0
v -24 -23 0
v -16 -24 0
v -17 -24 0
v -17 -23 0
v -16 -23 0
v -15 -24 0
v -16 -24 0
v -16 -23 0
v -15 -23 0
v 0 -24 0
v -1 -24 0
v -1 -23 0
v 0 -23 0
v -24 -25 0
v -25 -25 0
v -25 -24 0
v -24 -24 0
v -23 -25 0
v -24 -25 0
v -24 -24 0
v -23 -24 0
v -22 -25 0
v -23 -25 0
v -23 -24 0
v -22 -24 0
v -21 -25 0
v -22 -25 0
v -22 -24 0
v -21 -24 0
v -20 -25 0
v -21 -25 0
v -21 -24 0
v -20 -24 0
v -19 -25 0
v -20 -25 0
v -20 -24 0
v -19 -24 0
v -18 -25 0
v -19 -25 0
v -19 -24 0
v -18 -24 0
v -17 -25 0
v -18 -25 0
v -18 -24 0
v -17 -24 0
v -16 -25 0
v -17 -25 0
v -17 -24 0
v -16 -24 0
v -15 -25 0
v -16 -25 0
v -16 -24 0
v -15 -24 0
v -11 -25 0
v -12 -25 0
v -12 -24 0
v -11 -24 0
v -10 -25 0
v -11 -25 0
v -11 -24 0
v -10 -24 0
v -9 -25 0
v -10 -25 0
v -10 -24 0
v -9 -24 0
v -8 -25 0
v -9 -25 0
v -9 -24 0
v -8 -24 0
v -7 -25 0
v -8 -25 0
v -8 -24 0
v -7 -24 0
v -6 -25 0
v -7 -25 0
v -7 -24 0
v -6 -24 0
v -5 -25 0
v -6 -25 0
v -6 -24 0
v -5 -24 0
v -4 -25 0
v -5 -25 0
v -5 -24 0
v -4 -24 0
v -3 -25 0
v -4 -25 0
v -4 -24 0
v -3 -24 0
v -2 -25 0
v -3 -25 0
v -3 -24 0
v -2 -24 0
v -1 -25 0
v -2 -25 0
v -2 -24 0
v -1 -24 0
v 0 -25 0
v -1 -25 0
v -1 -24 0
v 0 -24 0

# Texture cooridinates (Count = 114)
vt 0.075 0.6111111
vt 0.1 0.6111111
vt 0.1 0.6388889
vt 0.075 0.6388889
vt 0.05 0.6111111
vt 0.05 0.6388889
vt 0.025 0.6111111
vt 0.025 0.6388889
vt 0.075 0.5833334
vt 0.1 0.5833334
vt 0.8 0.8888889
vt 0.825 0.8888889
vt 0.825 0.9166667
vt 0.8 0.9166667
vt 0.775 0.8888889
vt 0.775 0.9166667
vt 0.025 0.5833334
vt 0.05 0.5833334
vt 0.8 0.8611111
vt 0.825 0.8611111
vt 0.775 0.8611111
vt 0.25 0.6666666
vt 0.275 0.6666666
vt 0.275 0.6944444
vt 0.25 0.6944444
vt 0.225 0.6666666
vt 0.225 0.6944444
vt 0.25 0.9722222
vt 0.275 0.9722222
vt 0.275 1
vt 0.25 1
vt 0.225 0.9722222
vt 0.225 1
vt 0.2 0.9722222
vt 0.2 1
vt 0.175 0.9722222
vt 0.175 1
vt 0.15 0.9722222
vt 0.15 1
vt 0.25 0.6388889
vt 0.275 0.6388889
vt 0.225 0.6388889
vt 0.25 0.9444444
vt 0.275 0.9444444
vt 0.225 0.9444444
vt 0.2 0.9444444
vt 0.175 0.9444444
vt 0.15 0.9444444
vt 0.25 0.9166667
vt 0.275 0.9166667
vt 0.225 0.9166667
vt 0.2 0.9166667
vt 0.175 0.9166667
vt 0.15 0.9166667
vt 0.25 0.8888889
vt 0.275 0.8888889
vt 0.225 0.8888889
vt 0.2 0.8888889
vt 0.175 0.8888889
vt 0.15 0.8888889
vt 0.25 0.8611111
vt 0.275 0.8611111
vt 0.225 0.8611111
vt 0.2 0.8611111
vt 0.175 0.8611111
vt 0.15 0.8611111
vt 0.675 0.8611111
vt 0.7 0.8611111
vt 0.7 0.8888889
vt 0.675 0.8888889
vt 0.65 0.8611111
vt 0.65 0.8888889
vt 0.55 0.2777778
vt 0.575 0.2777778
vt 0.575 0.3055556
vt 0.55 0.3055556
vt 0.525 0.2777778
vt 0.525 0.3055556
vt 0.5 0.2777778
vt 0.5 0.3055556
vt 0.475 0.2777778
vt 0.475 0.3055556
vt 0.675 0.8333333
vt 0.7 0.8333333
vt 0.65 0.8333333
vt 0.55 0.25
vt 0.575 0.25
vt 0.525 0.25
vt 0.5 0.25
vt 0.475 0.25
vt 0.45 0.25
vt 0.45 0.2777778
vt 0.675 0.8055556
vt 0.7 0.8055556
vt 0.65 0.8055556
vt 0.55 0.2222222
vt 0.575 0.2222222
vt 0.525 0.2222222
vt 0.5 0.2222222
vt 0.475 0.2222222
vt 0.45 0.2222222
vt 0.675 0.7777778
vt 0.7 0.7777778
vt 0.65 0.7777778
vt 0 0.5555556
vt 0.025 0.5555556
vt 0 0.5833334
vt 0 0.6111111
vt 0.075 0.5555556
vt 0.1 0.5555556
vt 0.05 0.5555556
vt 0 0.5277778
vt 0.025 0.5277778
vt 0.05 0.5277778

# Normal
vn 0 0 -1

# Mesh description
g Room2_mesh_0002

# Faces
f 1/1/1 2/2/1 3/3/1 4/4/1
f 5/5/1 6/1/1 7/4/1 8/6/1
f 9/5/1 10/1/1 11/4/1 12/6/1
f 13/5/1 14/1/1 15/4/1 16/6/1
f 17/5/1 18/1/1 19/4/1 20/6/1
f 21/5/1 22/1/1 23/4/1 24/6/1
f 25/5/1 26/1/1 27/4/1 28/6/1
f 29/5/1 30/1/1 31/4/1 32/6/1
f 33/5/1 34/1/1 35/4/1 36/6/1
f 37/5/1 38/1/1 39/4/1 40/6/1
f 41/5/1 42/1/1 43/4/1 44/6/1
f 45/5/1 46/1/1 47/4/1 48/6/1
f 49/5/1 50/1/1 51/4/1 52/6/1
f 53/5/1 54/1/1 55/4/1 56/6/1
f 57/5/1 58/1/1 59/4/1 60/6/1
f 61/5/1 62/1/1 63/4/1 64/6/1
f 65/5/1 66/1/1 67/4/1 68/6/1
f 69/5/1 70/1/1 71/4/1 72/6/1
f 73/5/1 74/1/1 75/4/1 76/6/1
f 77/5/1 78/1/1 79/4/1 80/6/1
f 81/5/1 82/1/1 83/4/1 84/6/1
f 85/5/1 86/1/1 87/4/1 88/6/1
f 89/5/1 90/1/1 91/4/1 92/6/1
f 93/5/1 94/1/1 95/4/1 96/6/1
f 97/7/1 98/5/1 99/6/1 100/8/1
f 101/9/1 102/10/1 103/2/1 104/1/1
f 105/11/1 106/12/1 107/13/1 108/14/1
f 109/15/1 110/11/1 111/14/1 112/16/1
f 113/11/1 114/12/1 115/13/1 116/14/1
f 117/15/1 118/11/1 119/14/1 120/16/1
f 121/17/1 122/18/1 123/5/1 124/7/1
f 125/9/1 126/10/1 127/2/1 128/1/1
f 129/19/1 130/20/1 131/12/1 132/11/1
f 133/21/1 134/19/1 135/11/1 136/15/1
f 137/19/1 138/20/1 139/12/1 140/11/1
f 141/21/1 142/19/1 143/11/1 144/15/1
f 145/17/1 146/18/1 147/5/1 148/7/1
f 149/9/1 150/10/1 151/2/1 152/1/1
f 153/17/1 154/18/1 155/5/1 156/7/1
f 157/9/1 158/10/1 159/2/1 160/1/1
f 161/22/1 162/23/1 163/24/1 164/25/1
f 165/26/1 166/22/1 167/25/1 168/27/1
f 169/17/1 170/18/1 171/5/1 172/7/1
f 173/9/1 174/10/1 175/2/1 176/1/1
f 177/22/1 178/23/1 179/24/1 180/25/1
f 181/26/1 182/22/1 183/25/1 184/27/1
f 185/28/1 186/29/1 187/30/1 188/31/1
f 189/32/1 190/28/1 191/31/1 192/33/1
f 193/34/1 194/32/1 195/33/1 196/35/1
f 197/36/1 198/34/1 199/35/1 200/37/1
f 201/38/1 202/36/1 203/37/1 204/39/1
f 205/40/1 206/41/1 207/23/1 208/22/1
f 209/42/1 210/40/1 211/22/1 212/26/1
f 213/17/1 214/18/1 215/5/1 216/7/1
f 217/9/1 218/10/1 219/2/1 220/1/1
f 221/40/1 222/41/1 223/23/1 224/22/1
f 225/42/1 226/40/1 227/22/1 228/26/1
f 229/43/1 230/44/1 231/29/1 232/28/1
f 233/45/1 234/43/1 235/28/1 236/32/1
f 237/46/1 238/45/1 239/32/1 240/34/1
f 241/47/1 242/46/1 243/34/1 244/36/1
f 245/48/1 246/47/1 247/36/1 248/38/1
f 249/17/1 250/18/1 251/5/1 252/7/1
f 253/9/1 254/10/1 255/2/1 256/1/1
f 257/49/1 258/50/1 259/44/1 260/43/1
f 261/51/1 262/49/1 263/43/1 264/45/1
f 265/52/1 266/51/1 267/45/1 268/46/1
f 269/53/1 270/52/1 271/46/1 272/47/1
f 273/54/1 274/53/1 275/47/1 276/48/1
f 277/11/1 278/12/1 279/13/1 280/14/1
f 281/15/1 282/11/1 283/14/1 284/16/1
f 285/17/1 286/18/1 287/5/1 288/7/1
f 289/9/1 290/10/1 291/2/1 292/1/1
f 293/22/1 294/23/1 295/24/1 296/25/1
f 297/26/1 298/22/1 299/25/1 300/27/1
f 301/55/1 302/56/1 303/50/1 304/49/1
f 305/57/1 306/55/1 307/49/1 308/51/1
f 309/58/1 310/57/1 311/51/1 312/52/1
f 313/59/1 314/58/1 315/52/1 316/53/1
f 317/60/1 318/59/1 319/53/1 320/54/1
f 321/19/1 322/20/1 323/12/1 324/11/1
f 325/21/1 326/19/1 327/11/1 328/15/1
f 329/17/1 330/18/1 331/5/1 332/7/1
f 333/9/1 334/10/1 335/2/1 336/1/1
f 337/40/1 338/41/1 339/23/1 340/22/1
f 341/42/1 342/40/1 343/22/1 344/26/1
f 345/61/1 346/62/1 347/56/1 348/55/1
f 349/63/1 350/61/1 351/55/1 352/57/1
f 353/64/1 354/63/1 355/57/1 356/58/1
f 357/65/1 358/64/1 359/58/1 360/59/1
f 361/66/1 362/65/1 363/59/1 364/60/1
f 365/17/1 366/18/1 367/5/1 368/7/1
f 369/9/1 370/10/1 371/2/1 372/1/1
f 373/67/1 374/68/1 375/69/1 376/70/1
f 377/71/1 378/67/1 379/70/1 380/72/1
f 381/73/1 382/74/1 383/75/1 384/76/1
f 385/77/1 386/73/1 387/76/1 388/78/1
f 389/79/1 390/77/1 391/78/1 392/80/1
f 393/81/1 394/79/1 395/80/1 396/82/1
f 397/17/1 398/18/1 399/5/1 400/7/1
f 401/9/1 402/10/1 403/2/1 404/1/1
f 405/83/1 406/84/1 407/68/1 408/67/1
f 409/85/1 410/83/1 411/67/1 412/71/1
f 413/86/1 414/87/1 415/74/1 416/73/1
f 417/88/1 418/86/1 419/73/1 420/77/1
f 421/89/1 422/88/1 423/77/1 424/79/1
f 425/90/1 426/89/1 427/79/1 428/81/1
f 429/91/1 430/90/1 431/81/1 432/92/1
f 433/17/1 434/18/1 435/5/1 436/7/1
f 437/9/1 438/10/1 439/2/1 440/1/1
f 441/93/1 442/94/1 443/84/1 444/83/1
f 445/95/1 446/93/1 447/83/1 448/85/1
f 449/96/1 450/97/1 451/87/1 452/86/1
f 453/98/1 454/96/1 455/86/1 456/88/1
f 457/99/1 458/98/1 459/88/1 460/89/1
f 461/100/1 462/99/1 463/89/1 464/90/1
f 465/101/1 466/100/1 467/90/1 468/91/1
f 469/17/1 470/18/1 471/5/1 472/7/1
f 473/9/1 474/10/1 475/2/1 476/1/1
f 477/102/1 478/103/1 479/94/1 480/93/1
f 481/104/1 482/102/1 483/93/1 484/95/1
f 485/105/1 486/106/1 487/17/1 488/107/1
f 489/9/1 490/10/1 491/2/1 492/1/1
f 493/9/1 494/10/1 495/2/1 496/1/1
f 497/22/1 498/23/1 499/24/1 500/25/1
f 501/26/1 502/22/1 503/25/1 504/27/1
f 505/9/1 506/10/1 507/2/1 508/1/1
f 509/40/1 510/41/1 511/23/1 512/22/1
f 513/42/1 514/40/1 515/22/1 516/26/1
f 517/107/1 518/17/1 519/7/1 520/108/1
f 521/9/1 522/10/1 523/2/1 524/1/1
f 525/11/1 526/12/1 527/13/1 528/14/1
f 529/15/1 530/11/1 531/14/1 532/16/1
f 533/17/1 534/18/1 535/5/1 536/7/1
f 537/9/1 538/10/1 539/2/1 540/1/1
f 541/19/1 542/20/1 543/12/1 544/11/1
f 545/21/1 546/19/1 547/11/1 548/15/1
f 549/17/1 550/18/1 551/5/1 552/7/1
f 553/9/1 554/10/1 555/2/1 556/1/1
f 557/11/1 558/12/1 559/13/1 560/14/1
f 561/15/1 562/11/1 563/14/1 564/16/1
f 565/17/1 566/18/1 567/5/1 568/7/1
f 569/9/1 570/10/1 571/2/1 572/1/1
f 573/11/1 574/12/1 575/13/1 576/14/1
f 577/15/1 578/11/1 579/14/1 580/16/1
f 581/19/1 582/20/1 583/12/1 584/11/1
f 585/21/1 586/19/1 587/11/1 588/15/1
f 589/17/1 590/18/1 591/5/1 592/7/1
f 593/9/1 594/10/1 595/2/1 596/1/1
f 597/19/1 598/20/1 599/12/1 600/11/1
f 601/21/1 602/19/1 603/11/1 604/15/1
f 605/17/1 606/18/1 607/5/1 608/7/1
f 609/9/1 610/10/1 611/2/1 612/1/1
f 613/22/1 614/23/1 615/24/1 616/25/1
f 617/26/1 618/22/1 619/25/1 620/27/1
f 621/17/1 622/18/1 623/5/1 624/7/1
f 625/9/1 626/10/1 627/2/1 628/1/1
f 629/40/1 630/41/1 631/23/1 632/22/1
f 633/42/1 634/40/1 635/22/1 636/26/1
f 637/17/1 638/18/1 639/5/1 640/7/1
f 641/109/1 642/110/1 643/10/1 644/9/1
f 645/111/1 646/109/1 647/9/1 648/18/1
f 649/111/1 650/109/1 651/9/1 652/18/1
f 653/111/1 654/109/1 655/9/1 656/18/1
f 657/111/1 658/109/1 659/9/1 660/18/1
f 661/111/1 662/109/1 663/9/1 664/18/1
f 665/111/1 666/109/1 667/9/1 668/18/1
f 669/111/1 670/109/1 671/9/1 672/18/1
f 673/111/1 674/109/1 675/9/1 676/18/1
f 677/112/1 678/113/1 679/106/1 680/105/1
f 681/113/1 682/114/1 683/111/1 684/106/1
f 685/111/1 686/109/1 687/9/1 688/18/1
f 689/111/1 690/109/1 691/9/1 692/18/1
f 693/111/1 694/109/1 695/9/1 696/18/1
f 697/111/1 698/109/1 699/9/1 700/18/1
f 701/111/1 702/109/1 703/9/1 704/18/1
f 705/111/1 706/109/1 707/9/1 708/18/1
f 709/111/1 710/109/1 711/9/1 712/18/1
f 713/111/1 714/109/1 715/9/1 716/18/1
f 717/111/1 718/109/1 719/9/1 720/18/1
f 721/111/1 722/109/1 723/9/1 724/18/1
f 725/106/1 726/111/1 727/18/1 728/17/1

