# Tiled2Unity generated file. Do not modify by hand.
# Wavefront file for 'Lake_mesh_0002.obj'

# Vertices (Count = 796)
v -24 -1 0
v -25 -1 0
v -25 0 0
v -24 0 0
v -23 -1 0
v -24 -1 0
v -24 0 0
v -23 0 0
v -22 -1 0
v -23 -1 0
v -23 0 0
v -22 0 0
v -21 -1 0
v -22 -1 0
v -22 0 0
v -21 0 0
v -20 -1 0
v -21 -1 0
v -21 0 0
v -20 0 0
v -19 -1 0
v -20 -1 0
v -20 0 0
v -19 0 0
v -18 -1 0
v -19 -1 0
v -19 0 0
v -18 0 0
v -17 -1 0
v -18 -1 0
v -18 0 0
v -17 0 0
v -16 -1 0
v -17 -1 0
v -17 0 0
v -16 0 0
v -15 -1 0
v -16 -1 0
v -16 0 0
v -15 0 0
v -14 -1 0
v -15 -1 0
v -15 0 0
v -14 0 0
v -13 -1 0
v -14 -1 0
v -14 0 0
v -13 0 0
v -12 -1 0
v -13 -1 0
v -13 0 0
v -12 0 0
v -11 -1 0
v -12 -1 0
v -12 0 0
v -11 0 0
v -10 -1 0
v -11 -1 0
v -11 0 0
v -10 0 0
v -9 -1 0
v -10 -1 0
v -10 0 0
v -9 0 0
v -8 -1 0
v -9 -1 0
v -9 0 0
v -8 0 0
v -7 -1 0
v -8 -1 0
v -8 0 0
v -7 0 0
v -6 -1 0
v -7 -1 0
v -7 0 0
v -6 0 0
v -5 -1 0
v -6 -1 0
v -6 0 0
v -5 0 0
v -4 -1 0
v -5 -1 0
v -5 0 0
v -4 0 0
v -3 -1 0
v -4 -1 0
v -4 0 0
v -3 0 0
v -2 -1 0
v -3 -1 0
v -3 0 0
v -2 0 0
v -1 -1 0
v -2 -1 0
v -2 0 0
v -1 0 0
v 0 -1 0
v -1 -1 0
v -1 0 0
v 0 0 0
v -24 -2 0
v -25 -2 0
v -25 -1 0
v -24 -1 0
v -23 -2 0
v -24 -2 0
v -24 -1 0
v -23 -1 0
v -22 -2 0
v -23 -2 0
v -23 -1 0
v -22 -1 0
v -20 -2 0
v -21 -2 0
v -21 -1 0
v -20 -1 0
v -19 -2 0
v -20 -2 0
v -20 -1 0
v -19 -1 0
v -18 -2 0
v -19 -2 0
v -19 -1 0
v -18 -1 0
v -16 -2 0
v -17 -2 0
v -17 -1 0
v -16 -1 0
v -15 -2 0
v -16 -2 0
v -16 -1 0
v -15 -1 0
v 0 -2 0
v -1 -2 0
v -1 -1 0
v 0 -1 0
v -24 -3 0
v -25 -3 0
v -25 -2 0
v -24 -2 0
v -23 -3 0
v -24 -3 0
v -24 -2 0
v -23 -2 0
v -22 -3 0
v -23 -3 0
v -23 -2 0
v -22 -2 0
v -20 -3 0
v -21 -3 0
v -21 -2 0
v -20 -2 0
v -19 -3 0
v -20 -3 0
v -20 -2 0
v -19 -2 0
v -18 -3 0
v -19 -3 0
v -19 -2 0
v -18 -2 0
v -16 -3 0
v -17 -3 0
v -17 -2 0
v -16 -2 0
v -15 -3 0
v -16 -3 0
v -16 -2 0
v -15 -2 0
v 0 -3 0
v -1 -3 0
v -1 -2 0
v 0 -2 0
v -24 -4 0
v -25 -4 0
v -25 -3 0
v -24 -3 0
v -20 -4 0
v -21 -4 0
v -21 -3 0
v -20 -3 0
v -19 -4 0
v -20 -4 0
v -20 -3 0
v -19 -3 0
v -18 -4 0
v -19 -4 0
v -19 -3 0
v -18 -3 0
v -5 -4 0
v -6 -4 0
v -6 -3 0
v -5 -3 0
v -4 -4 0
v -5 -4 0
v -5 -3 0
v -4 -3 0
v 0 -4 0
v -1 -4 0
v -1 -3 0
v 0 -3 0
v -24 -5 0
v -25 -5 0
v -25 -4 0
v -24 -4 0
v -5 -5 0
v -6 -5 0
v -6 -4 0
v -5 -4 0
v -4 -5 0
v -5 -5 0
v -5 -4 0
v -4 -4 0
v 0 -5 0
v -1 -5 0
v -1 -4 0
v 0 -4 0
v -24 -6 0
v -25 -6 0
v -25 -5 0
v -24 -5 0
v -11 -6 0
v -12 -6 0
v -12 -5 0
v -11 -5 0
v -10 -6 0
v -11 -6 0
v -11 -5 0
v -10 -5 0
v 0 -6 0
v -1 -6 0
v -1 -5 0
v 0 -5 0
v -24 -7 0
v -25 -7 0
v -25 -6 0
v -24 -6 0
v -11 -7 0
v -12 -7 0
v -12 -6 0
v -11 -6 0
v -10 -7 0
v -11 -7 0
v -11 -6 0
v -10 -6 0
v 0 -7 0
v -1 -7 0
v -1 -6 0
v 0 -6 0
v -24 -8 0
v -25 -8 0
v -25 -7 0
v -24 -7 0
v -21 -8 0
v -22 -8 0
v -22 -7 0
v -21 -7 0
v -20 -8 0
v -21 -8 0
v -21 -7 0
v -20 -7 0
v -17 -8 0
v -18 -8 0
v -18 -7 0
v -17 -7 0
v -16 -8 0
v -17 -8 0
v -17 -7 0
v -16 -7 0
v 0 -8 0
v -1 -8 0
v -1 -7 0
v 0 -7 0
v -24 -9 0
v -25 -9 0
v -25 -8 0
v -24 -8 0
v -21 -9 0
v -22 -9 0
v -22 -8 0
v -21 -8 0
v -20 -9 0
v -21 -9 0
v -21 -8 0
v -20 -8 0
v -17 -9 0
v -18 -9 0
v -18 -8 0
v -17 -8 0
v -16 -9 0
v -17 -9 0
v -17 -8 0
v -16 -8 0
v -3 -9 0
v -4 -9 0
v -4 -8 0
v -3 -8 0
v -2 -9 0
v -3 -9 0
v -3 -8 0
v -2 -8 0
v 0 -9 0
v -1 -9 0
v -1 -8 0
v 0 -8 0
v -24 -10 0
v -25 -10 0
v -25 -9 0
v -24 -9 0
v -3 -10 0
v -4 -10 0
v -4 -9 0
v -3 -9 0
v -2 -10 0
v -3 -10 0
v -3 -9 0
v -2 -9 0
v 0 -10 0
v -1 -10 0
v -1 -9 0
v 0 -9 0
v -24 -11 0
v -25 -11 0
v -25 -10 0
v -24 -10 0
v -19 -11 0
v -20 -11 0
v -20 -10 0
v -19 -10 0
v -18 -11 0
v -19 -11 0
v -19 -10 0
v -18 -10 0
v -17 -11 0
v -18 -11 0
v -18 -10 0
v -17 -10 0
v -16 -11 0
v -17 -11 0
v -17 -10 0
v -16 -10 0
v -15 -11 0
v -16 -11 0
v -16 -10 0
v -15 -10 0
v -14 -11 0
v -15 -11 0
v -15 -10 0
v -14 -10 0
v -13 -11 0
v -14 -11 0
v -14 -10 0
v -13 -10 0
v -12 -11 0
v -13 -11 0
v -13 -10 0
v -12 -10 0
v -11 -11 0
v -12 -11 0
v -12 -10 0
v -11 -10 0
v -10 -11 0
v -11 -11 0
v -11 -10 0
v -10 -10 0
v -9 -11 0
v -10 -11 0
v -10 -10 0
v -9 -10 0
v -8 -11 0
v -9 -11 0
v -9 -10 0
v -8 -10 0
v -7 -11 0
v -8 -11 0
v -8 -10 0
v -7 -10 0
v -6 -11 0
v -7 -11 0
v -7 -10 0
v -6 -10 0
v -5 -11 0
v -6 -11 0
v -6 -10 0
v -5 -10 0
v -4 -11 0
v -5 -11 0
v -5 -10 0
v -4 -10 0
v 0 -11 0
v -1 -11 0
v -1 -10 0
v 0 -10 0
v -24 -12 0
v -25 -12 0
v -25 -11 0
v -24 -11 0
v -19 -12 0
v -20 -12 0
v -20 -11 0
v -19 -11 0
v -18 -12 0
v -19 -12 0
v -19 -11 0
v -18 -11 0
v -17 -12 0
v -18 -12 0
v -18 -11 0
v -17 -11 0
v -16 -12 0
v -17 -12 0
v -17 -11 0
v -16 -11 0
v -15 -12 0
v -16 -12 0
v -16 -11 0
v -15 -11 0
v -14 -12 0
v -15 -12 0
v -15 -11 0
v -14 -11 0
v -13 -12 0
v -14 -12 0
v -14 -11 0
v -13 -11 0
v -12 -12 0
v -13 -12 0
v -13 -11 0
v -12 -11 0
v -11 -12 0
v -12 -12 0
v -12 -11 0
v -11 -11 0
v -10 -12 0
v -11 -12 0
v -11 -11 0
v -10 -11 0
v -9 -12 0
v -10 -12 0
v -10 -11 0
v -9 -11 0
v -8 -12 0
v -9 -12 0
v -9 -11 0
v -8 -11 0
v -7 -12 0
v -8 -12 0
v -8 -11 0
v -7 -11 0
v -6 -12 0
v -7 -12 0
v -7 -11 0
v -6 -11 0
v -5 -12 0
v -6 -12 0
v -6 -11 0
v -5 -11 0
v -4 -12 0
v -5 -12 0
v -5 -11 0
v -4 -11 0
v 0 -12 0
v -1 -12 0
v -1 -11 0
v 0 -11 0
v -24 -13 0
v -25 -13 0
v -25 -12 0
v -24 -12 0
v -19 -13 0
v -20 -13 0
v -20 -12 0
v -19 -12 0
v -18 -13 0
v -19 -13 0
v -19 -12 0
v -18 -12 0
v -17 -13 0
v -18 -13 0
v -18 -12 0
v -17 -12 0
v -16 -13 0
v -17 -13 0
v -17 -12 0
v -16 -12 0
v -15 -13 0
v -16 -13 0
v -16 -12 0
v -15 -12 0
v -14 -13 0
v -15 -13 0
v -15 -12 0
v -14 -12 0
v -13 -13 0
v -14 -13 0
v -14 -12 0
v -13 -12 0
v -12 -13 0
v -13 -13 0
v -13 -12 0
v -12 -12 0
v -11 -13 0
v -12 -13 0
v -12 -12 0
v -11 -12 0
v -10 -13 0
v -11 -13 0
v -11 -12 0
v -10 -12 0
v -9 -13 0
v -10 -13 0
v -10 -12 0
v -9 -12 0
v -8 -13 0
v -9 -13 0
v -9 -12 0
v -8 -12 0
v -7 -13 0
v -8 -13 0
v -8 -12 0
v -7 -12 0
v -6 -13 0
v -7 -13 0
v -7 -12 0
v -6 -12 0
v -5 -13 0
v -6 -13 0
v -6 -12 0
v -5 -12 0
v -4 -13 0
v -5 -13 0
v -5 -12 0
v -4 -12 0
v 0 -13 0
v -1 -13 0
v -1 -12 0
v 0 -12 0
v -24 -14 0
v -25 -14 0
v -25 -13 0
v -24 -13 0
v 0 -14 0
v -1 -14 0
v -1 -13 0
v 0 -13 0
v 0 -15 0
v -1 -15 0
v -1 -14 0
v 0 -14 0
v -8 -16 0
v -9 -16 0
v -9 -15 0
v -8 -15 0
v -7 -16 0
v -8 -16 0
v -8 -15 0
v -7 -15 0
v 0 -16 0
v -1 -16 0
v -1 -15 0
v 0 -15 0
v -24 -17 0
v -25 -17 0
v -25 -16 0
v -24 -16 0
v -8 -17 0
v -9 -17 0
v -9 -16 0
v -8 -16 0
v -7 -17 0
v -8 -17 0
v -8 -16 0
v -7 -16 0
v 0 -17 0
v -1 -17 0
v -1 -16 0
v 0 -16 0
v -24 -18 0
v -25 -18 0
v -25 -17 0
v -24 -17 0
v 0 -18 0
v -1 -18 0
v -1 -17 0
v 0 -17 0
v -24 -19 0
v -25 -19 0
v -25 -18 0
v -24 -18 0
v -23 -19 0
v -24 -19 0
v -24 -18 0
v -23 -18 0
v -22 -19 0
v -23 -19 0
v -23 -18 0
v -22 -18 0
v -7 -19 0
v -8 -19 0
v -8 -18 0
v -7 -18 0
v -6 -19 0
v -7 -19 0
v -7 -18 0
v -6 -18 0
v 0 -19 0
v -1 -19 0
v -1 -18 0
v 0 -18 0
v -24 -20 0
v -25 -20 0
v -25 -19 0
v -24 -19 0
v -23 -20 0
v -24 -20 0
v -24 -19 0
v -23 -19 0
v -22 -20 0
v -23 -20 0
v -23 -19 0
v -22 -19 0
v -7 -20 0
v -8 -20 0
v -8 -19 0
v -7 -19 0
v -6 -20 0
v -7 -20 0
v -7 -19 0
v -6 -19 0
v -2 -20 0
v -3 -20 0
v -3 -19 0
v -2 -19 0
v -1 -20 0
v -2 -20 0
v -2 -19 0
v -1 -19 0
v 0 -20 0
v -1 -20 0
v -1 -19 0
v 0 -19 0
v -24 -21 0
v -25 -21 0
v -25 -20 0
v -24 -20 0
v -2 -21 0
v -3 -21 0
v -3 -20 0
v -2 -20 0
v -1 -21 0
v -2 -21 0
v -2 -20 0
v -1 -20 0
v 0 -21 0
v -1 -21 0
v -1 -20 0
v 0 -20 0
v -24 -22 0
v -25 -22 0
v -25 -21 0
v -24 -21 0
v 0 -22 0
v -1 -22 0
v -1 -21 0
v 0 -21 0
v -24 -23 0
v -25 -23 0
v -25 -22 0
v -24 -22 0
v -23 -23 0
v -24 -23 0
v -24 -22 0
v -23 -22 0
v -22 -23 0
v -23 -23 0
v -23 -22 0
v -22 -22 0
v -21 -23 0
v -22 -23 0
v -22 -22 0
v -21 -22 0
v -20 -23 0
v -21 -23 0
v -21 -22 0
v -20 -22 0
v 0 -23 0
v -1 -23 0
v -1 -22 0
v 0 -22 0
v -24 -24 0
v -25 -24 0
v -25 -23 0
v -24 -23 0
v -23 -24 0
v -24 -24 0
v -24 -23 0
v -23 -23 0
v -22 -24 0
v -23 -24 0
v -23 -23 0
v -22 -23 0
v -21 -24 0
v -22 -24 0
v -22 -23 0
v -21 -23 0
v -20 -24 0
v -21 -24 0
v -21 -23 0
v -20 -23 0
v 0 -24 0
v -1 -24 0
v -1 -23 0
v 0 -23 0
v -24 -25 0
v -25 -25 0
v -25 -24 0
v -24 -24 0
v -23 -25 0
v -24 -25 0
v -24 -24 0
v -23 -24 0
v -22 -25 0
v -23 -25 0
v -23 -24 0
v -22 -24 0
v -21 -25 0
v -22 -25 0
v -22 -24 0
v -21 -24 0
v -20 -25 0
v -21 -25 0
v -21 -24 0
v -20 -24 0
v -19 -25 0
v -20 -25 0
v -20 -24 0
v -19 -24 0
v -18 -25 0
v -19 -25 0
v -19 -24 0
v -18 -24 0
v -17 -25 0
v -18 -25 0
v -18 -24 0
v -17 -24 0
v -16 -25 0
v -17 -25 0
v -17 -24 0
v -16 -24 0
v -15 -25 0
v -16 -25 0
v -16 -24 0
v -15 -24 0
v -14 -25 0
v -15 -25 0
v -15 -24 0
v -14 -24 0
v -13 -25 0
v -14 -25 0
v -14 -24 0
v -13 -24 0
v -12 -25 0
v -13 -25 0
v -13 -24 0
v -12 -24 0
v -11 -25 0
v -12 -25 0
v -12 -24 0
v -11 -24 0
v -10 -25 0
v -11 -25 0
v -11 -24 0
v -10 -24 0
v -9 -25 0
v -10 -25 0
v -10 -24 0
v -9 -24 0
v -4 -25 0
v -5 -25 0
v -5 -24 0
v -4 -24 0
v -3 -25 0
v -4 -25 0
v -4 -24 0
v -3 -24 0
v -2 -25 0
v -3 -25 0
v -3 -24 0
v -2 -24 0
v -1 -25 0
v -2 -25 0
v -2 -24 0
v -1 -24 0
v 0 -25 0
v -1 -25 0
v -1 -24 0
v 0 -24 0

# Texture cooridinates (Count = 94)
vt 0.075 0.6111111
vt 0.1 0.6111111
vt 0.1 0.6388889
vt 0.075 0.6388889
vt 0.05 0.6111111
vt 0.05 0.6388889
vt 0.025 0.6111111
vt 0.025 0.6388889
vt 0.025 0.5833334
vt 0.05 0.5833334
vt 0.125 0.9444444
vt 0.15 0.9444444
vt 0.15 0.9722222
vt 0.125 0.9722222
vt 0.1 0.9444444
vt 0.1 0.9722222
vt 0.325 0.2777778
vt 0.35 0.2777778
vt 0.35 0.3055556
vt 0.325 0.3055556
vt 0.3 0.2777778
vt 0.3 0.3055556
vt 0.275 0.2777778
vt 0.275 0.3055556
vt 0.15 0.5277778
vt 0.175 0.5277778
vt 0.175 0.5555556
vt 0.15 0.5555556
vt 0.125 0.5277778
vt 0.125 0.5555556
vt 0.125 0.9166667
vt 0.15 0.9166667
vt 0.1 0.9166667
vt 0.325 0.25
vt 0.35 0.25
vt 0.3 0.25
vt 0.275 0.25
vt 0.15 0.5
vt 0.175 0.5
vt 0.125 0.5
vt 0.325 0.2222222
vt 0.35 0.2222222
vt 0.3 0.2222222
vt 0.275 0.2222222
vt 0.3 0.7777778
vt 0.325 0.7777778
vt 0.325 0.8055556
vt 0.3 0.8055556
vt 0.275 0.7777778
vt 0.275 0.8055556
vt 0.3 0.75
vt 0.325 0.75
vt 0.275 0.75
vt 0.8 0.8888889
vt 0.825 0.8888889
vt 0.825 0.9166667
vt 0.8 0.9166667
vt 0.775 0.8888889
vt 0.775 0.9166667
vt 0.35 0.75
vt 0.375 0.75
vt 0.375 0.7777778
vt 0.35 0.7777778
vt 0.8 0.8611111
vt 0.825 0.8611111
vt 0.775 0.8611111
vt 0.35 0.7222222
vt 0.375 0.7222222
vt 0.325 0.7222222
vt 0.25 0.8055556
vt 0.275 0.8333333
vt 0.25 0.8333333
vt 0.225 0.8055556
vt 0.225 0.8333333
vt 0.2 0.8055556
vt 0.2 0.8333333
vt 0.25 0.7777778
vt 0.225 0.7777778
vt 0.2 0.7777778
vt 0.25 0.75
vt 0.225 0.75
vt 0.2 0.75
vt 0 0.5555556
vt 0.025 0.5555556
vt 0 0.5833334
vt 0 0.6111111
vt 0.075 0.5833334
vt 0.1 0.5833334
vt 0.075 0.5555556
vt 0.1 0.5555556
vt 0.05 0.5555556
vt 0 0.5277778
vt 0.025 0.5277778
vt 0.05 0.5277778

# Normal
vn 0 0 -1

# Mesh description
g Lake_mesh_0002

# Faces
f 1/1/1 2/2/1 3/3/1 4/4/1
f 5/5/1 6/1/1 7/4/1 8/6/1
f 9/5/1 10/1/1 11/4/1 12/6/1
f 13/5/1 14/1/1 15/4/1 16/6/1
f 17/5/1 18/1/1 19/4/1 20/6/1
f 21/5/1 22/1/1 23/4/1 24/6/1
f 25/5/1 26/1/1 27/4/1 28/6/1
f 29/5/1 30/1/1 31/4/1 32/6/1
f 33/5/1 34/1/1 35/4/1 36/6/1
f 37/5/1 38/1/1 39/4/1 40/6/1
f 41/5/1 42/1/1 43/4/1 44/6/1
f 45/5/1 46/1/1 47/4/1 48/6/1
f 49/5/1 50/1/1 51/4/1 52/6/1
f 53/5/1 54/1/1 55/4/1 56/6/1
f 57/5/1 58/1/1 59/4/1 60/6/1
f 61/5/1 62/1/1 63/4/1 64/6/1
f 65/5/1 66/1/1 67/4/1 68/6/1
f 69/5/1 70/1/1 71/4/1 72/6/1
f 73/5/1 74/1/1 75/4/1 76/6/1
f 77/5/1 78/1/1 79/4/1 80/6/1
f 81/5/1 82/1/1 83/4/1 84/6/1
f 85/5/1 86/1/1 87/4/1 88/6/1
f 89/5/1 90/1/1 91/4/1 92/6/1
f 93/5/1 94/1/1 95/4/1 96/6/1
f 97/7/1 98/5/1 99/6/1 100/8/1
f 101/9/1 102/10/1 103/5/1 104/7/1
f 105/11/1 106/12/1 107/13/1 108/14/1
f 109/15/1 110/11/1 111/14/1 112/16/1
f 113/17/1 114/18/1 115/19/1 116/20/1
f 117/21/1 118/17/1 119/20/1 120/22/1
f 121/23/1 122/21/1 123/22/1 124/24/1
f 125/25/1 126/26/1 127/27/1 128/28/1
f 129/29/1 130/25/1 131/28/1 132/30/1
f 133/9/1 134/10/1 135/5/1 136/7/1
f 137/9/1 138/10/1 139/5/1 140/7/1
f 141/31/1 142/32/1 143/12/1 144/11/1
f 145/33/1 146/31/1 147/11/1 148/15/1
f 149/34/1 150/35/1 151/18/1 152/17/1
f 153/36/1 154/34/1 155/17/1 156/21/1
f 157/37/1 158/36/1 159/21/1 160/23/1
f 161/38/1 162/39/1 163/26/1 164/25/1
f 165/40/1 166/38/1 167/25/1 168/29/1
f 169/9/1 170/10/1 171/5/1 172/7/1
f 173/9/1 174/10/1 175/5/1 176/7/1
f 177/41/1 178/42/1 179/35/1 180/34/1
f 181/43/1 182/41/1 183/34/1 184/36/1
f 185/44/1 186/43/1 187/36/1 188/37/1
f 189/11/1 190/12/1 191/13/1 192/14/1
f 193/15/1 194/11/1 195/14/1 196/16/1
f 197/9/1 198/10/1 199/5/1 200/7/1
f 201/9/1 202/10/1 203/5/1 204/7/1
f 205/31/1 206/32/1 207/12/1 208/11/1
f 209/33/1 210/31/1 211/11/1 212/15/1
f 213/9/1 214/10/1 215/5/1 216/7/1
f 217/9/1 218/10/1 219/5/1 220/7/1
f 221/45/1 222/46/1 223/47/1 224/48/1
f 225/49/1 226/45/1 227/48/1 228/50/1
f 229/9/1 230/10/1 231/5/1 232/7/1
f 233/9/1 234/10/1 235/5/1 236/7/1
f 237/51/1 238/52/1 239/46/1 240/45/1
f 241/53/1 242/51/1 243/45/1 244/49/1
f 245/9/1 246/10/1 247/5/1 248/7/1
f 249/9/1 250/10/1 251/5/1 252/7/1
f 253/54/1 254/55/1 255/56/1 256/57/1
f 257/58/1 258/54/1 259/57/1 260/59/1
f 261/60/1 262/61/1 263/62/1 264/63/1
f 265/52/1 266/60/1 267/63/1 268/46/1
f 269/9/1 270/10/1 271/5/1 272/7/1
f 273/9/1 274/10/1 275/5/1 276/7/1
f 277/64/1 278/65/1 279/55/1 280/54/1
f 281/66/1 282/64/1 283/54/1 284/58/1
f 285/67/1 286/68/1 287/61/1 288/60/1
f 289/69/1 290/67/1 291/60/1 292/52/1
f 293/54/1 294/55/1 295/56/1 296/57/1
f 297/58/1 298/54/1 299/57/1 300/59/1
f 301/9/1 302/10/1 303/5/1 304/7/1
f 305/9/1 306/10/1 307/5/1 308/7/1
f 309/64/1 310/65/1 311/55/1 312/54/1
f 313/66/1 314/64/1 315/54/1 316/58/1
f 317/9/1 318/10/1 319/5/1 320/7/1
f 321/9/1 322/10/1 323/5/1 324/7/1
f 325/70/1 326/50/1 327/71/1 328/72/1
f 329/73/1 330/70/1 331/72/1 332/74/1
f 333/73/1 334/70/1 335/72/1 336/74/1
f 337/73/1 338/70/1 339/72/1 340/74/1
f 341/73/1 342/70/1 343/72/1 344/74/1
f 345/73/1 346/70/1 347/72/1 348/74/1
f 349/73/1 350/70/1 351/72/1 352/74/1
f 353/73/1 354/70/1 355/72/1 356/74/1
f 357/73/1 358/70/1 359/72/1 360/74/1
f 361/73/1 362/70/1 363/72/1 364/74/1
f 365/73/1 366/70/1 367/72/1 368/74/1
f 369/73/1 370/70/1 371/72/1 372/74/1
f 373/73/1 374/70/1 375/72/1 376/74/1
f 377/73/1 378/70/1 379/72/1 380/74/1
f 381/73/1 382/70/1 383/72/1 384/74/1
f 385/75/1 386/73/1 387/74/1 388/76/1
f 389/9/1 390/10/1 391/5/1 392/7/1
f 393/9/1 394/10/1 395/5/1 396/7/1
f 397/77/1 398/49/1 399/50/1 400/70/1
f 401/78/1 402/77/1 403/70/1 404/73/1
f 405/78/1 406/77/1 407/70/1 408/73/1
f 409/78/1 410/77/1 411/70/1 412/73/1
f 413/78/1 414/77/1 415/70/1 416/73/1
f 417/78/1 418/77/1 419/70/1 420/73/1
f 421/78/1 422/77/1 423/70/1 424/73/1
f 425/78/1 426/77/1 427/70/1 428/73/1
f 429/78/1 430/77/1 431/70/1 432/73/1
f 433/78/1 434/77/1 435/70/1 436/73/1
f 437/78/1 438/77/1 439/70/1 440/73/1
f 441/78/1 442/77/1 443/70/1 444/73/1
f 445/78/1 446/77/1 447/70/1 448/73/1
f 449/78/1 450/77/1 451/70/1 452/73/1
f 453/78/1 454/77/1 455/70/1 456/73/1
f 457/79/1 458/78/1 459/73/1 460/75/1
f 461/9/1 462/10/1 463/5/1 464/7/1
f 465/9/1 466/10/1 467/5/1 468/7/1
f 469/80/1 470/53/1 471/49/1 472/77/1
f 473/81/1 474/80/1 475/77/1 476/78/1
f 477/81/1 478/80/1 479/77/1 480/78/1
f 481/81/1 482/80/1 483/77/1 484/78/1
f 485/81/1 486/80/1 487/77/1 488/78/1
f 489/81/1 490/80/1 491/77/1 492/78/1
f 493/81/1 494/80/1 495/77/1 496/78/1
f 497/81/1 498/80/1 499/77/1 500/78/1
f 501/81/1 502/80/1 503/77/1 504/78/1
f 505/81/1 506/80/1 507/77/1 508/78/1
f 509/81/1 510/80/1 511/77/1 512/78/1
f 513/81/1 514/80/1 515/77/1 516/78/1
f 517/81/1 518/80/1 519/77/1 520/78/1
f 521/81/1 522/80/1 523/77/1 524/78/1
f 525/81/1 526/80/1 527/77/1 528/78/1
f 529/82/1 530/81/1 531/78/1 532/79/1
f 533/9/1 534/10/1 535/5/1 536/7/1
f 537/83/1 538/84/1 539/9/1 540/85/1
f 541/9/1 542/10/1 543/5/1 544/7/1
f 545/9/1 546/10/1 547/5/1 548/7/1
f 549/60/1 550/61/1 551/62/1 552/63/1
f 553/52/1 554/60/1 555/63/1 556/46/1
f 557/9/1 558/10/1 559/5/1 560/7/1
f 561/85/1 562/9/1 563/7/1 564/86/1
f 565/67/1 566/68/1 567/61/1 568/60/1
f 569/69/1 570/67/1 571/60/1 572/52/1
f 573/9/1 574/10/1 575/5/1 576/7/1
f 577/87/1 578/88/1 579/2/1 580/1/1
f 581/9/1 582/10/1 583/5/1 584/7/1
f 585/87/1 586/88/1 587/2/1 588/1/1
f 589/54/1 590/55/1 591/56/1 592/57/1
f 593/58/1 594/54/1 595/57/1 596/59/1
f 597/25/1 598/26/1 599/27/1 600/28/1
f 601/29/1 602/25/1 603/28/1 604/30/1
f 605/9/1 606/10/1 607/5/1 608/7/1
f 609/87/1 610/88/1 611/2/1 612/1/1
f 613/64/1 614/65/1 615/55/1 616/54/1
f 617/66/1 618/64/1 619/54/1 620/58/1
f 621/38/1 622/39/1 623/26/1 624/25/1
f 625/40/1 626/38/1 627/25/1 628/29/1
f 629/54/1 630/55/1 631/56/1 632/57/1
f 633/58/1 634/54/1 635/57/1 636/59/1
f 637/9/1 638/10/1 639/5/1 640/7/1
f 641/87/1 642/88/1 643/2/1 644/1/1
f 645/64/1 646/65/1 647/55/1 648/54/1
f 649/66/1 650/64/1 651/54/1 652/58/1
f 653/9/1 654/10/1 655/5/1 656/7/1
f 657/87/1 658/88/1 659/2/1 660/1/1
f 661/9/1 662/10/1 663/5/1 664/7/1
f 665/87/1 666/88/1 667/2/1 668/1/1
f 669/11/1 670/12/1 671/13/1 672/14/1
f 673/15/1 674/11/1 675/14/1 676/16/1
f 677/25/1 678/26/1 679/27/1 680/28/1
f 681/29/1 682/25/1 683/28/1 684/30/1
f 685/9/1 686/10/1 687/5/1 688/7/1
f 689/87/1 690/88/1 691/2/1 692/1/1
f 693/31/1 694/32/1 695/12/1 696/11/1
f 697/33/1 698/31/1 699/11/1 700/15/1
f 701/38/1 702/39/1 703/26/1 704/25/1
f 705/40/1 706/38/1 707/25/1 708/29/1
f 709/9/1 710/10/1 711/5/1 712/7/1
f 713/89/1 714/90/1 715/88/1 716/87/1
f 717/91/1 718/89/1 719/87/1 720/10/1
f 721/91/1 722/89/1 723/87/1 724/10/1
f 725/91/1 726/89/1 727/87/1 728/10/1
f 729/91/1 730/89/1 731/87/1 732/10/1
f 733/91/1 734/89/1 735/87/1 736/10/1
f 737/91/1 738/89/1 739/87/1 740/10/1
f 741/91/1 742/89/1 743/87/1 744/10/1
f 745/91/1 746/89/1 747/87/1 748/10/1
f 749/91/1 750/89/1 751/87/1 752/10/1
f 753/91/1 754/89/1 755/87/1 756/10/1
f 757/91/1 758/89/1 759/87/1 760/10/1
f 761/91/1 762/89/1 763/87/1 764/10/1
f 765/91/1 766/89/1 767/87/1 768/10/1
f 769/91/1 770/89/1 771/87/1 772/10/1
f 773/92/1 774/93/1 775/84/1 776/83/1
f 777/93/1 778/94/1 779/91/1 780/84/1
f 781/91/1 782/89/1 783/87/1 784/10/1
f 785/91/1 786/89/1 787/87/1 788/10/1
f 789/91/1 790/89/1 791/87/1 792/10/1
f 793/84/1 794/91/1 795/10/1 796/9/1

