# Tiled2Unity generated file. Do not modify by hand.
# Wavefront file for 'PlayerHouse_mesh_0003.obj'

# Vertices (Count = 36)
v -7 -3 0
v -8 -3 0
v -8 -2 0
v -7 -2 0
v -7 -4 0
v -8 -4 0
v -8 -3 0
v -7 -3 0
v -9 -5 0
v -10 -5 0
v -10 -4 0
v -9 -4 0
v -7 -5 0
v -8 -5 0
v -8 -4 0
v -7 -4 0
v -5 -5 0
v -6 -5 0
v -6 -4 0
v -5 -4 0
v -9 -6 0
v -10 -6 0
v -10 -5 0
v -9 -5 0
v -5 -6 0
v -6 -6 0
v -6 -5 0
v -5 -5 0
v -9 -7 0
v -10 -7 0
v -10 -6 0
v -9 -6 0
v -5 -7 0
v -6 -7 0
v -6 -6 0
v -5 -6 0

# Texture cooridinates (Count = 20)
vt 0.375 0.8
vt 0.4 0.8
vt 0.4 0.84
vt 0.375 0.84
vt 0.375 0.76
vt 0.4 0.76
vt 0.45 0.8
vt 0.475 0.8
vt 0.475 0.84
vt 0.45 0.84
vt 0.375 0.72
vt 0.4 0.72
vt 0.425 0.8
vt 0.425 0.84
vt 0.45 0.76
vt 0.475 0.76
vt 0.425 0.76
vt 0.45 0.72
vt 0.475 0.72
vt 0.425 0.72

# Normal
vn 0 0 -1

# Mesh description
g PlayerHouse_mesh_0003

# Faces
f 1/1/1 2/2/1 3/3/1 4/4/1
f 5/5/1 6/6/1 7/2/1 8/1/1
f 9/7/1 10/8/1 11/9/1 12/10/1
f 13/11/1 14/12/1 15/6/1 16/5/1
f 17/2/1 18/13/1 19/14/1 20/3/1
f 21/15/1 22/16/1 23/8/1 24/7/1
f 25/6/1 26/17/1 27/13/1 28/2/1
f 29/18/1 30/19/1 31/16/1 32/15/1
f 33/12/1 34/20/1 35/17/1 36/6/1

