# Tiled2Unity generated file. Do not modify by hand.
# Wavefront file for 'PlayerHouse_mesh_0004.obj'

# Vertices (Count = 132)
v -13 -1 0
v -14 -1 0
v -14 0 0
v -13 0 0
v -9 -1 0
v -10 -1 0
v -10 0 0
v -9 0 0
v -8 -1 0
v -9 -1 0
v -9 0 0
v -8 0 0
v -7 -1 0
v -8 -1 0
v -8 0 0
v -7 0 0
v -6 -1 0
v -7 -1 0
v -7 0 0
v -6 0 0
v -3 -1 0
v -4 -1 0
v -4 0 0
v -3 0 0
v -2 -1 0
v -3 -1 0
v -3 0 0
v -2 0 0
v -13 -2 0
v -14 -2 0
v -14 -1 0
v -13 -1 0
v -9 -2 0
v -10 -2 0
v -10 -1 0
v -9 -1 0
v -8 -2 0
v -9 -2 0
v -9 -1 0
v -8 -1 0
v -7 -2 0
v -8 -2 0
v -8 -1 0
v -7 -1 0
v -6 -2 0
v -7 -2 0
v -7 -1 0
v -6 -1 0
v -3 -2 0
v -4 -2 0
v -4 -1 0
v -3 -1 0
v -2 -2 0
v -3 -2 0
v -3 -1 0
v -2 -1 0
v -3 -3 0
v -4 -3 0
v -4 -2 0
v -3 -2 0
v -2 -3 0
v -3 -3 0
v -3 -2 0
v -2 -2 0
v -8 -5 0
v -9 -5 0
v -9 -4 0
v -8 -4 0
v -7 -5 0
v -8 -5 0
v -8 -4 0
v -7 -4 0
v -6 -5 0
v -7 -5 0
v -7 -4 0
v -6 -4 0
v -8 -6 0
v -9 -6 0
v -9 -5 0
v -8 -5 0
v -7 -6 0
v -8 -6 0
v -8 -5 0
v -7 -5 0
v -6 -6 0
v -7 -6 0
v -7 -5 0
v -6 -5 0
v -8 -7 0
v -9 -7 0
v -9 -6 0
v -8 -6 0
v -7 -7 0
v -8 -7 0
v -8 -6 0
v -7 -6 0
v -6 -7 0
v -7 -7 0
v -7 -6 0
v -6 -6 0
v -15 -10 0
v -16 -10 0
v -16 -9 0
v -15 -9 0
v -14 -10 0
v -15 -10 0
v -15 -9 0
v -14 -9 0
v -1 -10 0
v -2 -10 0
v -2 -9 0
v -1 -9 0
v 0 -10 0
v -1 -10 0
v -1 -9 0
v 0 -9 0
v -7 -11 0
v -8 -11 0
v -8 -10 0
v -7 -10 0
v -4 -11 0
v -5 -11 0
v -5 -10 0
v -4 -10 0
v -7 -12 0
v -8 -12 0
v -8 -11 0
v -7 -11 0
v -4 -12 0
v -5 -12 0
v -5 -11 0
v -4 -11 0

# Texture cooridinates (Count = 59)
vt 0.1 0.36
vt 0.125 0.36
vt 0.125 0.4
vt 0.1 0.4
vt 0.25 0.8
vt 0.275 0.8
vt 0.275 0.84
vt 0.25 0.84
vt 0.225 0.8
vt 0.225 0.84
vt 0.325 0.56
vt 0.35 0.56
vt 0.35 0.6
vt 0.325 0.6
vt 0.3 0.56
vt 0.3 0.6
vt 0.1 0.32
vt 0.125 0.32
vt 0.25 0.76
vt 0.275 0.76
vt 0.225 0.76
vt 0.325 0.52
vt 0.35 0.52
vt 0.3 0.52
vt 0.325 0.48
vt 0.35 0.48
vt 0.3 0.48
vt 0.375 0.92
vt 0.4 0.92
vt 0.4 0.96
vt 0.375 0.96
vt 0.35 0.92
vt 0.35 0.96
vt 0.325 0.92
vt 0.325 0.96
vt 0.375 0.88
vt 0.4 0.88
vt 0.35 0.88
vt 0.325 0.88
vt 0.375 0.84
vt 0.4 0.84
vt 0.35 0.84
vt 0.325 0.84
vt 0.025 0.96
vt 0.05 0.96
vt 0.05 1
vt 0.025 1
vt 0.075 0.96
vt 0.1 0.96
vt 0.1 1
vt 0.075 1
vt 0.025 0.88
vt 0.05 0.88
vt 0.05 0.92
vt 0.025 0.92
vt 0.075 0.88
vt 0.1 0.88
vt 0.1 0.92
vt 0.075 0.92

# Normal
vn 0 0 -1

# Mesh description
g PlayerHouse_mesh_0004

# Faces
f 1/1/1 2/2/1 3/3/1 4/4/1
f 5/5/1 6/6/1 7/7/1 8/8/1
f 9/9/1 10/5/1 11/8/1 12/10/1
f 13/5/1 14/6/1 15/7/1 16/8/1
f 17/9/1 18/5/1 19/8/1 20/10/1
f 21/11/1 22/12/1 23/13/1 24/14/1
f 25/15/1 26/11/1 27/14/1 28/16/1
f 29/17/1 30/18/1 31/2/1 32/1/1
f 33/19/1 34/20/1 35/6/1 36/5/1
f 37/21/1 38/19/1 39/5/1 40/9/1
f 41/19/1 42/20/1 43/6/1 44/5/1
f 45/21/1 46/19/1 47/5/1 48/9/1
f 49/22/1 50/23/1 51/12/1 52/11/1
f 53/24/1 54/22/1 55/11/1 56/15/1
f 57/25/1 58/26/1 59/23/1 60/22/1
f 61/27/1 62/25/1 63/22/1 64/24/1
f 65/28/1 66/29/1 67/30/1 68/31/1
f 69/32/1 70/28/1 71/31/1 72/33/1
f 73/34/1 74/32/1 75/33/1 76/35/1
f 77/36/1 78/37/1 79/29/1 80/28/1
f 81/38/1 82/36/1 83/28/1 84/32/1
f 85/39/1 86/38/1 87/32/1 88/34/1
f 89/40/1 90/41/1 91/37/1 92/36/1
f 93/42/1 94/40/1 95/36/1 96/38/1
f 97/43/1 98/42/1 99/38/1 100/39/1
f 101/2/1 102/3/1 103/4/1 104/1/1
f 105/18/1 106/2/1 107/1/1 108/17/1
f 109/2/1 110/18/1 111/17/1 112/1/1
f 113/3/1 114/2/1 115/1/1 116/4/1
f 117/44/1 118/45/1 119/46/1 120/47/1
f 121/48/1 122/49/1 123/50/1 124/51/1
f 125/52/1 126/53/1 127/54/1 128/55/1
f 129/56/1 130/57/1 131/58/1 132/59/1

