# Tiled2Unity generated file. Do not modify by hand.
# Wavefront file for 'Forest_mesh_0002.obj'

# Vertices (Count = 540)
v -24 -1 0
v -25 -1 0
v -25 0 0
v -24 0 0
v -23 -1 0
v -24 -1 0
v -24 0 0
v -23 0 0
v -22 -1 0
v -23 -1 0
v -23 0 0
v -22 0 0
v -21 -1 0
v -22 -1 0
v -22 0 0
v -21 0 0
v -20 -1 0
v -21 -1 0
v -21 0 0
v -20 0 0
v -19 -1 0
v -20 -1 0
v -20 0 0
v -19 0 0
v -18 -1 0
v -19 -1 0
v -19 0 0
v -18 0 0
v -17 -1 0
v -18 -1 0
v -18 0 0
v -17 0 0
v -16 -1 0
v -17 -1 0
v -17 0 0
v -16 0 0
v -15 -1 0
v -16 -1 0
v -16 0 0
v -15 0 0
v -14 -1 0
v -15 -1 0
v -15 0 0
v -14 0 0
v -13 -1 0
v -14 -1 0
v -14 0 0
v -13 0 0
v -12 -1 0
v -13 -1 0
v -13 0 0
v -12 0 0
v -11 -1 0
v -12 -1 0
v -12 0 0
v -11 0 0
v -10 -1 0
v -11 -1 0
v -11 0 0
v -10 0 0
v -9 -1 0
v -10 -1 0
v -10 0 0
v -9 0 0
v -4 -1 0
v -5 -1 0
v -5 0 0
v -4 0 0
v -3 -1 0
v -4 -1 0
v -4 0 0
v -3 0 0
v -2 -1 0
v -3 -1 0
v -3 0 0
v -2 0 0
v -1 -1 0
v -2 -1 0
v -2 0 0
v -1 0 0
v 0 -1 0
v -1 -1 0
v -1 0 0
v 0 0 0
v -24 -2 0
v -25 -2 0
v -25 -1 0
v -24 -1 0
v -12 -2 0
v -13 -2 0
v -13 -1 0
v -12 -1 0
v -11 -2 0
v -12 -2 0
v -12 -1 0
v -11 -1 0
v -2 -2 0
v -3 -2 0
v -3 -1 0
v -2 -1 0
v -1 -2 0
v -2 -2 0
v -2 -1 0
v -1 -1 0
v 0 -2 0
v -1 -2 0
v -1 -1 0
v 0 -1 0
v -24 -3 0
v -25 -3 0
v -25 -2 0
v -24 -2 0
v -16 -3 0
v -17 -3 0
v -17 -2 0
v -16 -2 0
v -15 -3 0
v -16 -3 0
v -16 -2 0
v -15 -2 0
v -12 -3 0
v -13 -3 0
v -13 -2 0
v -12 -2 0
v -11 -3 0
v -12 -3 0
v -12 -2 0
v -11 -2 0
v -2 -3 0
v -3 -3 0
v -3 -2 0
v -2 -2 0
v -1 -3 0
v -2 -3 0
v -2 -2 0
v -1 -2 0
v 0 -3 0
v -1 -3 0
v -1 -2 0
v 0 -2 0
v -24 -4 0
v -25 -4 0
v -25 -3 0
v -24 -3 0
v -16 -4 0
v -17 -4 0
v -17 -3 0
v -16 -3 0
v -15 -4 0
v -16 -4 0
v -16 -3 0
v -15 -3 0
v 0 -4 0
v -1 -4 0
v -1 -3 0
v 0 -3 0
v -24 -5 0
v -25 -5 0
v -25 -4 0
v -24 -4 0
v -5 -5 0
v -6 -5 0
v -6 -4 0
v -5 -4 0
v 0 -5 0
v -1 -5 0
v -1 -4 0
v 0 -4 0
v -24 -6 0
v -25 -6 0
v -25 -5 0
v -24 -5 0
v -22 -6 0
v -23 -6 0
v -23 -5 0
v -22 -5 0
v -21 -6 0
v -22 -6 0
v -22 -5 0
v -21 -5 0
v -5 -6 0
v -6 -6 0
v -6 -5 0
v -5 -5 0
v 0 -6 0
v -1 -6 0
v -1 -5 0
v 0 -5 0
v -24 -7 0
v -25 -7 0
v -25 -6 0
v -24 -6 0
v -22 -7 0
v -23 -7 0
v -23 -6 0
v -22 -6 0
v -21 -7 0
v -22 -7 0
v -22 -6 0
v -21 -6 0
v -5 -7 0
v -6 -7 0
v -6 -6 0
v -5 -6 0
v 0 -7 0
v -1 -7 0
v -1 -6 0
v 0 -6 0
v -24 -8 0
v -25 -8 0
v -25 -7 0
v -24 -7 0
v 0 -8 0
v -1 -8 0
v -1 -7 0
v 0 -7 0
v -24 -9 0
v -25 -9 0
v -25 -8 0
v -24 -8 0
v -20 -9 0
v -21 -9 0
v -21 -8 0
v -20 -8 0
v -19 -9 0
v -20 -9 0
v -20 -8 0
v -19 -8 0
v -18 -9 0
v -19 -9 0
v -19 -8 0
v -18 -8 0
v 0 -9 0
v -1 -9 0
v -1 -8 0
v 0 -8 0
v -24 -10 0
v -25 -10 0
v -25 -9 0
v -24 -9 0
v 0 -10 0
v -1 -10 0
v -1 -9 0
v 0 -9 0
v -24 -11 0
v -25 -11 0
v -25 -10 0
v -24 -10 0
v 0 -11 0
v -1 -11 0
v -1 -10 0
v 0 -10 0
v -24 -12 0
v -25 -12 0
v -25 -11 0
v -24 -11 0
v 0 -12 0
v -1 -12 0
v -1 -11 0
v 0 -11 0
v -24 -13 0
v -25 -13 0
v -25 -12 0
v -24 -12 0
v -10 -13 0
v -11 -13 0
v -11 -12 0
v -10 -12 0
v -9 -13 0
v -10 -13 0
v -10 -12 0
v -9 -12 0
v -3 -13 0
v -4 -13 0
v -4 -12 0
v -3 -12 0
v -2 -13 0
v -3 -13 0
v -3 -12 0
v -2 -12 0
v 0 -13 0
v -1 -13 0
v -1 -12 0
v 0 -12 0
v -24 -14 0
v -25 -14 0
v -25 -13 0
v -24 -13 0
v -10 -14 0
v -11 -14 0
v -11 -13 0
v -10 -13 0
v -9 -14 0
v -10 -14 0
v -10 -13 0
v -9 -13 0
v -3 -14 0
v -4 -14 0
v -4 -13 0
v -3 -13 0
v -2 -14 0
v -3 -14 0
v -3 -13 0
v -2 -13 0
v 0 -14 0
v -1 -14 0
v -1 -13 0
v 0 -13 0
v -24 -15 0
v -25 -15 0
v -25 -14 0
v -24 -14 0
v 0 -15 0
v -1 -15 0
v -1 -14 0
v 0 -14 0
v 0 -16 0
v -1 -16 0
v -1 -15 0
v 0 -15 0
v 0 -17 0
v -1 -17 0
v -1 -16 0
v 0 -16 0
v -24 -18 0
v -25 -18 0
v -25 -17 0
v -24 -17 0
v -14 -18 0
v -15 -18 0
v -15 -17 0
v -14 -17 0
v -13 -18 0
v -14 -18 0
v -14 -17 0
v -13 -17 0
v 0 -18 0
v -1 -18 0
v -1 -17 0
v 0 -17 0
v -24 -19 0
v -25 -19 0
v -25 -18 0
v -24 -18 0
v -14 -19 0
v -15 -19 0
v -15 -18 0
v -14 -18 0
v -13 -19 0
v -14 -19 0
v -14 -18 0
v -13 -18 0
v -2 -19 0
v -3 -19 0
v -3 -18 0
v -2 -18 0
v 0 -19 0
v -1 -19 0
v -1 -18 0
v 0 -18 0
v -24 -20 0
v -25 -20 0
v -25 -19 0
v -24 -19 0
v -23 -20 0
v -24 -20 0
v -24 -19 0
v -23 -19 0
v -22 -20 0
v -23 -20 0
v -23 -19 0
v -22 -19 0
v -2 -20 0
v -3 -20 0
v -3 -19 0
v -2 -19 0
v 0 -20 0
v -1 -20 0
v -1 -19 0
v 0 -19 0
v -24 -21 0
v -25 -21 0
v -25 -20 0
v -24 -20 0
v -23 -21 0
v -24 -21 0
v -24 -20 0
v -23 -20 0
v -22 -21 0
v -23 -21 0
v -23 -20 0
v -22 -20 0
v -2 -21 0
v -3 -21 0
v -3 -20 0
v -2 -20 0
v 0 -21 0
v -1 -21 0
v -1 -20 0
v 0 -20 0
v -24 -22 0
v -25 -22 0
v -25 -21 0
v -24 -21 0
v 0 -22 0
v -1 -22 0
v -1 -21 0
v 0 -21 0
v -24 -23 0
v -25 -23 0
v -25 -22 0
v -24 -22 0
v -22 -23 0
v -23 -23 0
v -23 -22 0
v -22 -22 0
v -21 -23 0
v -22 -23 0
v -22 -22 0
v -21 -22 0
v -20 -23 0
v -21 -23 0
v -21 -22 0
v -20 -22 0
v -6 -23 0
v -7 -23 0
v -7 -22 0
v -6 -22 0
v -5 -23 0
v -6 -23 0
v -6 -22 0
v -5 -22 0
v 0 -23 0
v -1 -23 0
v -1 -22 0
v 0 -22 0
v -24 -24 0
v -25 -24 0
v -25 -23 0
v -24 -23 0
v -6 -24 0
v -7 -24 0
v -7 -23 0
v -6 -23 0
v -5 -24 0
v -6 -24 0
v -6 -23 0
v -5 -23 0
v 0 -24 0
v -1 -24 0
v -1 -23 0
v 0 -23 0
v -24 -25 0
v -25 -25 0
v -25 -24 0
v -24 -24 0
v -23 -25 0
v -24 -25 0
v -24 -24 0
v -23 -24 0
v -22 -25 0
v -23 -25 0
v -23 -24 0
v -22 -24 0
v -21 -25 0
v -22 -25 0
v -22 -24 0
v -21 -24 0
v -20 -25 0
v -21 -25 0
v -21 -24 0
v -20 -24 0
v -19 -25 0
v -20 -25 0
v -20 -24 0
v -19 -24 0
v -18 -25 0
v -19 -25 0
v -19 -24 0
v -18 -24 0
v -17 -25 0
v -18 -25 0
v -18 -24 0
v -17 -24 0
v -16 -25 0
v -17 -25 0
v -17 -24 0
v -16 -24 0
v -15 -25 0
v -16 -25 0
v -16 -24 0
v -15 -24 0
v -14 -25 0
v -15 -25 0
v -15 -24 0
v -14 -24 0
v -13 -25 0
v -14 -25 0
v -14 -24 0
v -13 -24 0
v -12 -25 0
v -13 -25 0
v -13 -24 0
v -12 -24 0
v -11 -25 0
v -12 -25 0
v -12 -24 0
v -11 -24 0
v -7 -25 0
v -8 -25 0
v -8 -24 0
v -7 -24 0
v -6 -25 0
v -7 -25 0
v -7 -24 0
v -6 -24 0
v -5 -25 0
v -6 -25 0
v -6 -24 0
v -5 -24 0
v -4 -25 0
v -5 -25 0
v -5 -24 0
v -4 -24 0
v -3 -25 0
v -4 -25 0
v -4 -24 0
v -3 -24 0
v -2 -25 0
v -3 -25 0
v -3 -24 0
v -2 -24 0
v -1 -25 0
v -2 -25 0
v -2 -24 0
v -1 -24 0
v 0 -25 0
v -1 -25 0
v -1 -24 0
v 0 -24 0

# Texture cooridinates (Count = 48)
vt 0.075 0.6111111
vt 0.1 0.6111111
vt 0.1 0.6388889
vt 0.075 0.6388889
vt 0.05 0.6111111
vt 0.05 0.6388889
vt 0 0.5277778
vt 0.025 0.5277778
vt 0.025 0.5555556
vt 0 0.5555556
vt 0.05 0.5277778
vt 0.05 0.5555556
vt 0.025 0.6111111
vt 0.025 0.6388889
vt 0.075 0.5833334
vt 0.1 0.5833334
vt 0.15 0.5277778
vt 0.175 0.5277778
vt 0.175 0.5555556
vt 0.15 0.5555556
vt 0.125 0.5277778
vt 0.125 0.5555556
vt 0.25 0.6666666
vt 0.275 0.6666666
vt 0.275 0.6944444
vt 0.25 0.6944444
vt 0.225 0.6666666
vt 0.225 0.6944444
vt 0.025 0.5833334
vt 0.05 0.5833334
vt 0.15 0.5
vt 0.175 0.5
vt 0.125 0.5
vt 0.25 0.6388889
vt 0.275 0.6388889
vt 0.225 0.6388889
vt 0.125 0.8611111
vt 0.125 0.8333333
vt 0.15 0.8333333
vt 0.15 0.8611111
vt 0.1 0.8611111
vt 0.1 0.8333333
vt 0.075 0.8611111
vt 0.075 0.8333333
vt 0 0.5833334
vt 0 0.6111111
vt 0.075 0.5555556
vt 0.1 0.5555556

# Normal
vn 0 0 -1

# Mesh description
g Forest_mesh_0002

# Faces
f 1/1/1 2/2/1 3/3/1 4/4/1
f 5/5/1 6/1/1 7/4/1 8/6/1
f 9/5/1 10/1/1 11/4/1 12/6/1
f 13/5/1 14/1/1 15/4/1 16/6/1
f 17/5/1 18/1/1 19/4/1 20/6/1
f 21/5/1 22/1/1 23/4/1 24/6/1
f 25/5/1 26/1/1 27/4/1 28/6/1
f 29/5/1 30/1/1 31/4/1 32/6/1
f 33/5/1 34/1/1 35/4/1 36/6/1
f 37/5/1 38/1/1 39/4/1 40/6/1
f 41/5/1 42/1/1 43/4/1 44/6/1
f 45/5/1 46/1/1 47/4/1 48/6/1
f 49/5/1 50/1/1 51/4/1 52/6/1
f 53/5/1 54/1/1 55/4/1 56/6/1
f 57/5/1 58/1/1 59/4/1 60/6/1
f 61/7/1 62/8/1 63/9/1 64/10/1
f 65/8/1 66/11/1 67/12/1 68/9/1
f 69/5/1 70/1/1 71/4/1 72/6/1
f 73/5/1 74/1/1 75/4/1 76/6/1
f 77/5/1 78/1/1 79/4/1 80/6/1
f 81/13/1 82/5/1 83/6/1 84/14/1
f 85/15/1 86/16/1 87/2/1 88/1/1
f 89/17/1 90/18/1 91/19/1 92/20/1
f 93/21/1 94/17/1 95/20/1 96/22/1
f 97/23/1 98/24/1 99/25/1 100/26/1
f 101/27/1 102/23/1 103/26/1 104/28/1
f 105/29/1 106/30/1 107/5/1 108/13/1
f 109/15/1 110/16/1 111/2/1 112/1/1
f 113/23/1 114/24/1 115/25/1 116/26/1
f 117/27/1 118/23/1 119/26/1 120/28/1
f 121/31/1 122/32/1 123/18/1 124/17/1
f 125/33/1 126/31/1 127/17/1 128/21/1
f 129/34/1 130/35/1 131/24/1 132/23/1
f 133/36/1 134/34/1 135/23/1 136/27/1
f 137/29/1 138/30/1 139/5/1 140/13/1
f 141/15/1 142/16/1 143/2/1 144/1/1
f 145/34/1 146/35/1 147/24/1 148/23/1
f 149/36/1 150/34/1 151/23/1 152/27/1
f 153/29/1 154/30/1 155/5/1 156/13/1
f 157/15/1 158/16/1 159/2/1 160/1/1
f 161/37/1 162/38/1 163/39/1 164/40/1
f 165/29/1 166/30/1 167/5/1 168/13/1
f 169/15/1 170/16/1 171/2/1 172/1/1
f 173/17/1 174/18/1 175/19/1 176/20/1
f 177/21/1 178/17/1 179/20/1 180/22/1
f 181/41/1 182/42/1 183/38/1 184/37/1
f 185/29/1 186/30/1 187/5/1 188/13/1
f 189/15/1 190/16/1 191/2/1 192/1/1
f 193/31/1 194/32/1 195/18/1 196/17/1
f 197/33/1 198/31/1 199/17/1 200/21/1
f 201/43/1 202/44/1 203/42/1 204/41/1
f 205/29/1 206/30/1 207/5/1 208/13/1
f 209/15/1 210/16/1 211/2/1 212/1/1
f 213/29/1 214/30/1 215/5/1 216/13/1
f 217/15/1 218/16/1 219/2/1 220/1/1
f 221/38/1 222/39/1 223/40/1 224/37/1
f 225/42/1 226/38/1 227/37/1 228/41/1
f 229/44/1 230/42/1 231/41/1 232/43/1
f 233/29/1 234/30/1 235/5/1 236/13/1
f 237/15/1 238/16/1 239/2/1 240/1/1
f 241/29/1 242/30/1 243/5/1 244/13/1
f 245/15/1 246/16/1 247/2/1 248/1/1
f 249/29/1 250/30/1 251/5/1 252/13/1
f 253/15/1 254/16/1 255/2/1 256/1/1
f 257/29/1 258/30/1 259/5/1 260/13/1
f 261/15/1 262/16/1 263/2/1 264/1/1
f 265/23/1 266/24/1 267/25/1 268/26/1
f 269/27/1 270/23/1 271/26/1 272/28/1
f 273/17/1 274/18/1 275/19/1 276/20/1
f 277/21/1 278/17/1 279/20/1 280/22/1
f 281/29/1 282/30/1 283/5/1 284/13/1
f 285/15/1 286/16/1 287/2/1 288/1/1
f 289/34/1 290/35/1 291/24/1 292/23/1
f 293/36/1 294/34/1 295/23/1 296/27/1
f 297/31/1 298/32/1 299/18/1 300/17/1
f 301/33/1 302/31/1 303/17/1 304/21/1
f 305/29/1 306/30/1 307/5/1 308/13/1
f 309/10/1 310/9/1 311/29/1 312/45/1
f 313/29/1 314/30/1 315/5/1 316/13/1
f 317/29/1 318/30/1 319/5/1 320/13/1
f 321/29/1 322/30/1 323/5/1 324/13/1
f 325/45/1 326/29/1 327/13/1 328/46/1
f 329/17/1 330/18/1 331/19/1 332/20/1
f 333/21/1 334/17/1 335/20/1 336/22/1
f 337/29/1 338/30/1 339/5/1 340/13/1
f 341/15/1 342/16/1 343/2/1 344/1/1
f 345/31/1 346/32/1 347/18/1 348/17/1
f 349/33/1 350/31/1 351/17/1 352/21/1
f 353/37/1 354/38/1 355/39/1 356/40/1
f 357/29/1 358/30/1 359/5/1 360/13/1
f 361/15/1 362/16/1 363/2/1 364/1/1
f 365/23/1 366/24/1 367/25/1 368/26/1
f 369/27/1 370/23/1 371/26/1 372/28/1
f 373/41/1 374/42/1 375/38/1 376/37/1
f 377/29/1 378/30/1 379/5/1 380/13/1
f 381/15/1 382/16/1 383/2/1 384/1/1
f 385/34/1 386/35/1 387/24/1 388/23/1
f 389/36/1 390/34/1 391/23/1 392/27/1
f 393/43/1 394/44/1 395/42/1 396/41/1
f 397/29/1 398/30/1 399/5/1 400/13/1
f 401/15/1 402/16/1 403/2/1 404/1/1
f 405/29/1 406/30/1 407/5/1 408/13/1
f 409/15/1 410/16/1 411/2/1 412/1/1
f 413/37/1 414/40/1 415/39/1 416/38/1
f 417/41/1 418/37/1 419/38/1 420/42/1
f 421/43/1 422/41/1 423/42/1 424/44/1
f 425/23/1 426/24/1 427/25/1 428/26/1
f 429/27/1 430/23/1 431/26/1 432/28/1
f 433/29/1 434/30/1 435/5/1 436/13/1
f 437/15/1 438/16/1 439/2/1 440/1/1
f 441/34/1 442/35/1 443/24/1 444/23/1
f 445/36/1 446/34/1 447/23/1 448/27/1
f 449/29/1 450/30/1 451/5/1 452/13/1
f 453/47/1 454/48/1 455/16/1 456/15/1
f 457/12/1 458/47/1 459/15/1 460/30/1
f 461/12/1 462/47/1 463/15/1 464/30/1
f 465/12/1 466/47/1 467/15/1 468/30/1
f 469/12/1 470/47/1 471/15/1 472/30/1
f 473/12/1 474/47/1 475/15/1 476/30/1
f 477/12/1 478/47/1 479/15/1 480/30/1
f 481/12/1 482/47/1 483/15/1 484/30/1
f 485/12/1 486/47/1 487/15/1 488/30/1
f 489/12/1 490/47/1 491/15/1 492/30/1
f 493/12/1 494/47/1 495/15/1 496/30/1
f 497/12/1 498/47/1 499/15/1 500/30/1
f 501/12/1 502/47/1 503/15/1 504/30/1
f 505/7/1 506/8/1 507/9/1 508/10/1
f 509/8/1 510/11/1 511/12/1 512/9/1
f 513/12/1 514/47/1 515/15/1 516/30/1
f 517/12/1 518/47/1 519/15/1 520/30/1
f 521/12/1 522/47/1 523/15/1 524/30/1
f 525/12/1 526/47/1 527/15/1 528/30/1
f 529/12/1 530/47/1 531/15/1 532/30/1
f 533/12/1 534/47/1 535/15/1 536/30/1
f 537/9/1 538/12/1 539/30/1 540/29/1

